<svg width="18" height="18" viewBox="0 0 18 18" fill="none" xmlns="http://www.w3.org/2000/svg">
<path opacity="0.1" fill-rule="evenodd" clip-rule="evenodd" d="M9.29961 3.6001H8.69961V0.300097H5.39961V0H12.5996V0.300098H9.29961V3.6001ZM14.3996 0V0.300098L17.3089 0.300098L9.29961 8.30943V5.4001H8.69961V8.34898L0.650733 0.300098L3.59961 0.300098V0H0V3.6001H0.29961V0.696485L8.30322 8.7001H5.39961V9.3001H8.30894L0.29961 17.3094V14.4001H0V18H3.59961V17.7001H0.655128L8.69961 9.65561V12.6001H9.29961V9.69648L17.3032 17.7001H14.3996V18H18V14.4001H17.6996V17.349L9.65073 9.3001H12.5996V8.7001H9.65513L17.6996 0.655617V3.6001H18V0H14.3996ZM18 5.4001H17.6996V8.7001H14.3996V9.3001H17.6996V12.6001H18V5.4001ZM12.5996 18V17.7001H9.29961V14.4001H8.69961V17.7001H5.39961V18H12.5996ZM0 12.6001H0.29961V9.3001H3.59961V8.7001H0.29961V5.4001H0V12.6001Z" fill="#15151E"/>
</svg>
