<?xml version="1.0" encoding="UTF-8" standalone="no"?>
<!DOCTYPE svg PUBLIC "-//W3C//DTD SVG 1.1//EN"
 "http://www.w3.org/Graphics/SVG/1.1/DTD/svg11.dtd">
<!-- Generated by graphviz version 2.47.0 (20210316.0004)
 -->
<!-- Title: dependencies Pages: 1 -->
<svg width="2182pt" height="284pt"
 viewBox="0.00 0.00 2182.00 284.00" xmlns="http://www.w3.org/2000/svg" xmlns:xlink="http://www.w3.org/1999/xlink">
<g id="graph0" class="graph" transform="scale(1 1) rotate(0) translate(4 280)">
<title>dependencies</title>
<polygon fill="white" stroke="transparent" points="-4,4 -4,-280 2178,-280 2178,4 -4,4"/>
<text text-anchor="start" x="1066.01" y="-42.4" font-family="Times-12" font-weight="bold" font-size="14.00">Legend</text>
<polygon fill="#ffffb3" stroke="transparent" points="853,-10 853,-30 873,-30 873,-10 853,-10"/>
<text text-anchor="start" x="876.63" y="-15.4" font-family="Times-12" font-size="14.00"> &#160;Declarations</text>
<polygon fill="#8dd3c7" stroke="transparent" points="966,-10 966,-30 986,-30 986,-10 966,-10"/>
<text text-anchor="start" x="989.73" y="-15.4" font-family="Times-12" font-size="14.00"> &#160;Module</text>
<polygon fill="#80b1d3" stroke="transparent" points="1052,-10 1052,-30 1072,-30 1072,-10 1052,-10"/>
<text text-anchor="start" x="1075.78" y="-15.4" font-family="Times-12" font-size="14.00"> &#160;Bootstrap</text>
<polygon fill="#fdb462" stroke="transparent" points="1149,-10 1149,-30 1169,-30 1169,-10 1149,-10"/>
<text text-anchor="start" x="1172.67" y="-15.4" font-family="Times-12" font-size="14.00"> &#160;Providers</text>
<polygon fill="#fb8072" stroke="transparent" points="1245,-10 1245,-30 1265,-30 1265,-10 1245,-10"/>
<text text-anchor="start" x="1268.73" y="-15.4" font-family="Times-12" font-size="14.00"> &#160;Exports</text>
<g id="clust1" class="cluster">
<title>cluster_AppModule</title>
<polygon fill="none" stroke="black" stroke-dasharray="1,5" points="8,-70 8,-268 2166,-268 2166,-70 8,-70"/>
</g>
<g id="clust14" class="cluster">
<title>cluster_AppModule_imports</title>
<polygon fill="none" stroke="black" points="2014,-78 2014,-130 2158,-130 2158,-78 2014,-78"/>
</g>
<g id="clust2" class="cluster">
<title>cluster_AppModule_declarations</title>
<polygon fill="none" stroke="black" points="496,-78 496,-130 2006,-130 2006,-78 496,-78"/>
</g>
<g id="clust16" class="cluster">
<title>cluster_AppModule_bootstrap</title>
<polygon fill="none" stroke="black" points="1063,-208 1063,-260 1187,-260 1187,-208 1063,-208"/>
</g>
<g id="clust17" class="cluster">
<title>cluster_AppModule_providers</title>
<polygon fill="none" stroke="black" points="16,-78 16,-130 488,-130 488,-78 16,-78"/>
</g>
<!-- AdminComponent -->
<g id="node1" class="node">
<title>AdminComponent</title>
<polygon fill="#ffffb3" stroke="black" points="1998.22,-122 1877.78,-122 1877.78,-86 1998.22,-86 1998.22,-122"/>
<text text-anchor="middle" x="1938" y="-99.8" font-family="Times,serif" font-size="14.00">AdminComponent</text>
</g>
<!-- AppModule -->
<g id="node12" class="node">
<title>AppModule</title>
<polygon fill="#8dd3c7" stroke="black" points="1166.66,-187 1163.66,-191 1142.66,-191 1139.66,-187 1083.34,-187 1083.34,-151 1166.66,-151 1166.66,-187"/>
<text text-anchor="middle" x="1125" y="-164.8" font-family="Times,serif" font-size="14.00">AppModule</text>
</g>
<!-- AdminComponent&#45;&gt;AppModule -->
<g id="edge1" class="edge">
<title>AdminComponent&#45;&gt;AppModule</title>
<path fill="none" stroke="black" d="M1938,-122.29C1938,-144.21 1938,-178 1938,-178 1938,-178 1176.72,-178 1176.72,-178"/>
<polygon fill="black" stroke="black" points="1176.72,-174.5 1166.72,-178 1176.72,-181.5 1176.72,-174.5"/>
</g>
<!-- AppComponent -->
<g id="node2" class="node">
<title>AppComponent</title>
<polygon fill="#ffffb3" stroke="black" points="1859.94,-122 1754.06,-122 1754.06,-86 1859.94,-86 1859.94,-122"/>
<text text-anchor="middle" x="1807" y="-99.8" font-family="Times,serif" font-size="14.00">AppComponent</text>
</g>
<!-- AppComponent&#45;&gt;AppModule -->
<g id="edge2" class="edge">
<title>AppComponent&#45;&gt;AppModule</title>
<path fill="none" stroke="black" d="M1807,-122.03C1807,-142.77 1807,-174 1807,-174 1807,-174 1176.89,-174 1176.89,-174"/>
<polygon fill="black" stroke="black" points="1176.89,-170.5 1166.89,-174 1176.89,-177.5 1176.89,-170.5"/>
</g>
<!-- DriversComponent -->
<g id="node3" class="node">
<title>DriversComponent</title>
<polygon fill="#ffffb3" stroke="black" points="1736.81,-122 1613.19,-122 1613.19,-86 1736.81,-86 1736.81,-122"/>
<text text-anchor="middle" x="1675" y="-99.8" font-family="Times,serif" font-size="14.00">DriversComponent</text>
</g>
<!-- DriversComponent&#45;&gt;AppModule -->
<g id="edge3" class="edge">
<title>DriversComponent&#45;&gt;AppModule</title>
<path fill="none" stroke="black" d="M1675,-122.11C1675,-141.34 1675,-169 1675,-169 1675,-169 1176.79,-169 1176.79,-169"/>
<polygon fill="black" stroke="black" points="1176.79,-165.5 1166.79,-169 1176.79,-172.5 1176.79,-165.5"/>
</g>
<!-- HeaderComponent -->
<g id="node4" class="node">
<title>HeaderComponent</title>
<polygon fill="#ffffb3" stroke="black" points="1594.74,-122 1473.26,-122 1473.26,-86 1594.74,-86 1594.74,-122"/>
<text text-anchor="middle" x="1534" y="-99.8" font-family="Times,serif" font-size="14.00">HeaderComponent</text>
</g>
<!-- HeaderComponent&#45;&gt;AppModule -->
<g id="edge4" class="edge">
<title>HeaderComponent&#45;&gt;AppModule</title>
<path fill="none" stroke="black" d="M1534,-122.3C1534,-140.27 1534,-165 1534,-165 1534,-165 1176.85,-165 1176.85,-165"/>
<polygon fill="black" stroke="black" points="1176.85,-161.5 1166.85,-165 1176.85,-168.5 1176.85,-161.5"/>
</g>
<!-- HomeComponent -->
<g id="node5" class="node">
<title>HomeComponent</title>
<polygon fill="#ffffb3" stroke="black" points="1454.55,-122 1339.45,-122 1339.45,-86 1454.55,-86 1454.55,-122"/>
<text text-anchor="middle" x="1397" y="-99.8" font-family="Times,serif" font-size="14.00">HomeComponent</text>
</g>
<!-- HomeComponent&#45;&gt;AppModule -->
<g id="edge5" class="edge">
<title>HomeComponent&#45;&gt;AppModule</title>
<path fill="none" stroke="black" d="M1397,-122.03C1397,-138.4 1397,-160 1397,-160 1397,-160 1176.9,-160 1176.9,-160"/>
<polygon fill="black" stroke="black" points="1176.9,-156.5 1166.9,-160 1176.9,-163.5 1176.9,-156.5"/>
</g>
<!-- LoaderComponent -->
<g id="node6" class="node">
<title>LoaderComponent</title>
<polygon fill="#ffffb3" stroke="black" points="1321.47,-122 1200.53,-122 1200.53,-86 1321.47,-86 1321.47,-122"/>
<text text-anchor="middle" x="1261" y="-99.8" font-family="Times,serif" font-size="14.00">LoaderComponent</text>
</g>
<!-- LoaderComponent&#45;&gt;AppModule -->
<g id="edge6" class="edge">
<title>LoaderComponent&#45;&gt;AppModule</title>
<path fill="none" stroke="black" d="M1261,-122.19C1261,-137.18 1261,-156 1261,-156 1261,-156 1176.91,-156 1176.91,-156"/>
<polygon fill="black" stroke="black" points="1176.91,-152.5 1166.91,-156 1176.91,-159.5 1176.91,-152.5"/>
</g>
<!-- LoginComponent -->
<g id="node7" class="node">
<title>LoginComponent</title>
<polygon fill="#ffffb3" stroke="black" points="1182.28,-122 1067.72,-122 1067.72,-86 1182.28,-86 1182.28,-122"/>
<text text-anchor="middle" x="1125" y="-99.8" font-family="Times,serif" font-size="14.00">LoginComponent</text>
</g>
<!-- LoginComponent&#45;&gt;AppModule -->
<g id="edge7" class="edge">
<title>LoginComponent&#45;&gt;AppModule</title>
<path fill="none" stroke="black" d="M1125,-122.11C1125,-122.11 1125,-140.99 1125,-140.99"/>
<polygon fill="black" stroke="black" points="1121.5,-140.99 1125,-150.99 1128.5,-140.99 1121.5,-140.99"/>
</g>
<!-- PenaltiesComponent -->
<g id="node8" class="node">
<title>PenaltiesComponent</title>
<polygon fill="#ffffb3" stroke="black" points="1049.88,-122 918.12,-122 918.12,-86 1049.88,-86 1049.88,-122"/>
<text text-anchor="middle" x="984" y="-99.8" font-family="Times,serif" font-size="14.00">PenaltiesComponent</text>
</g>
<!-- PenaltiesComponent&#45;&gt;AppModule -->
<g id="edge8" class="edge">
<title>PenaltiesComponent&#45;&gt;AppModule</title>
<path fill="none" stroke="black" d="M984,-122.19C984,-137.18 984,-156 984,-156 984,-156 1073.08,-156 1073.08,-156"/>
<polygon fill="black" stroke="black" points="1073.08,-159.5 1083.08,-156 1073.08,-152.5 1073.08,-159.5"/>
</g>
<!-- ResultsComponent -->
<g id="node9" class="node">
<title>ResultsComponent</title>
<polygon fill="#ffffb3" stroke="black" points="900.05,-122 777.95,-122 777.95,-86 900.05,-86 900.05,-122"/>
<text text-anchor="middle" x="839" y="-99.8" font-family="Times,serif" font-size="14.00">ResultsComponent</text>
</g>
<!-- ResultsComponent&#45;&gt;AppModule -->
<g id="edge9" class="edge">
<title>ResultsComponent&#45;&gt;AppModule</title>
<path fill="none" stroke="black" d="M839,-122.03C839,-138.4 839,-160 839,-160 839,-160 1073.11,-160 1073.11,-160"/>
<polygon fill="black" stroke="black" points="1073.11,-163.5 1083.11,-160 1073.11,-156.5 1073.11,-163.5"/>
</g>
<!-- StatuteComponent -->
<g id="node10" class="node">
<title>StatuteComponent</title>
<polygon fill="#ffffb3" stroke="black" points="760.22,-122 639.78,-122 639.78,-86 760.22,-86 760.22,-122"/>
<text text-anchor="middle" x="700" y="-99.8" font-family="Times,serif" font-size="14.00">StatuteComponent</text>
</g>
<!-- StatuteComponent&#45;&gt;AppModule -->
<g id="edge10" class="edge">
<title>StatuteComponent&#45;&gt;AppModule</title>
<path fill="none" stroke="black" d="M700,-122.3C700,-140.27 700,-165 700,-165 700,-165 1073.09,-165 1073.09,-165"/>
<polygon fill="black" stroke="black" points="1073.09,-168.5 1083.09,-165 1073.09,-161.5 1073.09,-168.5"/>
</g>
<!-- TeamsComponent -->
<g id="node11" class="node">
<title>TeamsComponent</title>
<polygon fill="#ffffb3" stroke="black" points="622.15,-122 503.85,-122 503.85,-86 622.15,-86 622.15,-122"/>
<text text-anchor="middle" x="563" y="-99.8" font-family="Times,serif" font-size="14.00">TeamsComponent</text>
</g>
<!-- TeamsComponent&#45;&gt;AppModule -->
<g id="edge11" class="edge">
<title>TeamsComponent&#45;&gt;AppModule</title>
<path fill="none" stroke="black" d="M563,-122.11C563,-141.34 563,-169 563,-169 563,-169 1073.22,-169 1073.22,-169"/>
<polygon fill="black" stroke="black" points="1073.22,-172.5 1083.22,-169 1073.22,-165.5 1073.22,-172.5"/>
</g>
<!-- AppComponent  -->
<g id="node14" class="node">
<title>AppComponent </title>
<polygon fill="#80b1d3" stroke="black" points="1179.44,-252 1070.56,-252 1070.56,-216 1179.44,-216 1179.44,-252"/>
<text text-anchor="middle" x="1125" y="-229.8" font-family="Times,serif" font-size="14.00">AppComponent </text>
</g>
<!-- AppModule&#45;&gt;AppComponent  -->
<g id="edge13" class="edge">
<title>AppModule&#45;&gt;AppComponent </title>
<path fill="none" stroke="black" stroke-dasharray="1,5" d="M1125,-187.11C1125,-187.11 1125,-205.99 1125,-205.99"/>
<polygon fill="black" stroke="black" points="1121.5,-205.99 1125,-215.99 1128.5,-205.99 1121.5,-205.99"/>
</g>
<!-- AppRoutingModule -->
<g id="node13" class="node">
<title>AppRoutingModule</title>
<polygon fill="#8dd3c7" stroke="black" points="2150.27,-122 2147.27,-126 2126.27,-126 2123.27,-122 2021.73,-122 2021.73,-86 2150.27,-86 2150.27,-122"/>
<text text-anchor="middle" x="2086" y="-99.8" font-family="Times,serif" font-size="14.00">AppRoutingModule</text>
</g>
<!-- AppRoutingModule&#45;&gt;AppModule -->
<g id="edge12" class="edge">
<title>AppRoutingModule&#45;&gt;AppModule</title>
<path fill="none" stroke="black" d="M2086,-122.32C2086,-145.66 2086,-183 2086,-183 2086,-183 1176.91,-183 1176.91,-183"/>
<polygon fill="black" stroke="black" points="1176.91,-179.5 1166.91,-183 1176.91,-186.5 1176.91,-179.5"/>
</g>
<!-- AdminGuard -->
<g id="node15" class="node">
<title>AdminGuard</title>
<ellipse fill="#fdb462" stroke="black" cx="418" cy="-104" rx="61.98" ry="18"/>
<text text-anchor="middle" x="418" y="-99.8" font-family="Times,serif" font-size="14.00">AdminGuard</text>
</g>
<!-- AdminGuard&#45;&gt;AppModule -->
<g id="edge14" class="edge">
<title>AdminGuard&#45;&gt;AppModule</title>
<path fill="none" stroke="black" d="M418,-122.03C418,-142.77 418,-174 418,-174 418,-174 1073.15,-174 1073.15,-174"/>
<polygon fill="black" stroke="black" points="1073.15,-177.5 1083.15,-174 1073.15,-170.5 1073.15,-177.5"/>
</g>
<!-- LoaderInterceptor -->
<g id="node16" class="node">
<title>LoaderInterceptor</title>
<ellipse fill="#fdb462" stroke="black" cx="257" cy="-104" rx="80.98" ry="18"/>
<text text-anchor="middle" x="257" y="-99.8" font-family="Times,serif" font-size="14.00">LoaderInterceptor</text>
</g>
<!-- LoaderInterceptor&#45;&gt;AppModule -->
<g id="edge15" class="edge">
<title>LoaderInterceptor&#45;&gt;AppModule</title>
<path fill="none" stroke="black" d="M257,-122.29C257,-144.21 257,-178 257,-178 257,-178 1073.13,-178 1073.13,-178"/>
<polygon fill="black" stroke="black" points="1073.13,-181.5 1083.13,-178 1073.13,-174.5 1073.13,-181.5"/>
</g>
<!-- LoaderService -->
<g id="node17" class="node">
<title>LoaderService</title>
<ellipse fill="#fdb462" stroke="black" cx="91" cy="-104" rx="67.17" ry="18"/>
<text text-anchor="middle" x="91" y="-99.8" font-family="Times,serif" font-size="14.00">LoaderService</text>
</g>
<!-- LoaderService&#45;&gt;AppModule -->
<g id="edge16" class="edge">
<title>LoaderService&#45;&gt;AppModule</title>
<path fill="none" stroke="black" d="M91,-122.32C91,-145.66 91,-183 91,-183 91,-183 1073.19,-183 1073.19,-183"/>
<polygon fill="black" stroke="black" points="1073.19,-186.5 1083.19,-183 1073.19,-179.5 1073.19,-186.5"/>
</g>
</g>
</svg>
