<?xml version="1.0" encoding="UTF-8" standalone="no"?>
<!DOCTYPE svg PUBLIC "-//W3C//DTD SVG 1.1//EN"
 "http://www.w3.org/Graphics/SVG/1.1/DTD/svg11.dtd">
<!-- Generated by graphviz version 2.47.0 (20210316.0004)
 -->
<!-- Title: dependencies Pages: 1 -->
<svg width="6896pt" height="284pt"
 viewBox="0.00 0.00 6896.00 284.00" xmlns="http://www.w3.org/2000/svg" xmlns:xlink="http://www.w3.org/1999/xlink">
<g id="graph0" class="graph" transform="scale(1 1) rotate(0) translate(4 280)">
<title>dependencies</title>
<polygon fill="white" stroke="transparent" points="-4,4 -4,-280 6892,-280 6892,4 -4,4"/>
<text text-anchor="start" x="3423.01" y="-42.4" font-family="Times-12" font-weight="bold" font-size="14.00">Legend</text>
<polygon fill="#ffffb3" stroke="transparent" points="3210,-10 3210,-30 3230,-30 3230,-10 3210,-10"/>
<text text-anchor="start" x="3233.63" y="-15.4" font-family="Times-12" font-size="14.00"> &#160;Declarations</text>
<polygon fill="#8dd3c7" stroke="transparent" points="3323,-10 3323,-30 3343,-30 3343,-10 3323,-10"/>
<text text-anchor="start" x="3346.73" y="-15.4" font-family="Times-12" font-size="14.00"> &#160;Module</text>
<polygon fill="#80b1d3" stroke="transparent" points="3409,-10 3409,-30 3429,-30 3429,-10 3409,-10"/>
<text text-anchor="start" x="3432.78" y="-15.4" font-family="Times-12" font-size="14.00"> &#160;Bootstrap</text>
<polygon fill="#fdb462" stroke="transparent" points="3506,-10 3506,-30 3526,-30 3526,-10 3506,-10"/>
<text text-anchor="start" x="3529.67" y="-15.4" font-family="Times-12" font-size="14.00"> &#160;Providers</text>
<polygon fill="#fb8072" stroke="transparent" points="3602,-10 3602,-30 3622,-30 3622,-10 3602,-10"/>
<text text-anchor="start" x="3625.73" y="-15.4" font-family="Times-12" font-size="14.00"> &#160;Exports</text>
<g id="clust1" class="cluster">
<title>cluster_AppModule</title>
<polygon fill="none" stroke="black" stroke-dasharray="1,5" points="8,-70 8,-268 6880,-268 6880,-70 8,-70"/>
</g>
<g id="clust2" class="cluster">
<title>cluster_AppModule_declarations</title>
<polygon fill="none" stroke="black" points="1354,-78 1354,-130 6872,-130 6872,-78 1354,-78"/>
</g>
<g id="clust39" class="cluster">
<title>cluster_AppModule_providers</title>
<polygon fill="none" stroke="black" points="168,-78 168,-130 1346,-130 1346,-78 168,-78"/>
</g>
<g id="clust38" class="cluster">
<title>cluster_AppModule_bootstrap</title>
<polygon fill="none" stroke="black" points="3125,-208 3125,-260 3249,-260 3249,-208 3125,-208"/>
</g>
<g id="clust36" class="cluster">
<title>cluster_AppModule_imports</title>
<polygon fill="none" stroke="black" points="16,-78 16,-130 160,-130 160,-78 16,-78"/>
</g>
<!-- AdminComponent -->
<g id="node1" class="node">
<title>AdminComponent</title>
<polygon fill="#ffffb3" stroke="black" points="6864.22,-122 6743.78,-122 6743.78,-86 6864.22,-86 6864.22,-122"/>
<text text-anchor="middle" x="6804" y="-99.8" font-family="Times,serif" font-size="14.00">AdminComponent</text>
</g>
<!-- AppModule -->
<g id="node34" class="node">
<title>AppModule</title>
<polygon fill="#8dd3c7" stroke="black" points="3228.66,-187 3225.66,-191 3204.66,-191 3201.66,-187 3145.34,-187 3145.34,-151 3228.66,-151 3228.66,-187"/>
<text text-anchor="middle" x="3187" y="-164.8" font-family="Times,serif" font-size="14.00">AppModule</text>
</g>
<!-- AdminComponent&#45;&gt;AppModule -->
<g id="edge1" class="edge">
<title>AdminComponent&#45;&gt;AppModule</title>
<path fill="none" stroke="black" d="M6804,-122.2C6804,-146.36 6804,-186 6804,-186 6804,-186 3238.87,-186 3238.87,-186"/>
<polygon fill="black" stroke="black" points="3238.87,-182.5 3228.87,-186 3238.87,-189.5 3238.87,-182.5"/>
</g>
<!-- AdminPenaltiesComponent -->
<g id="node2" class="node">
<title>AdminPenaltiesComponent</title>
<polygon fill="#ffffb3" stroke="black" points="6726.26,-122 6555.74,-122 6555.74,-86 6726.26,-86 6726.26,-122"/>
<text text-anchor="middle" x="6641" y="-99.8" font-family="Times,serif" font-size="14.00">AdminPenaltiesComponent</text>
</g>
<!-- AdminPenaltiesComponent&#45;&gt;AppModule -->
<g id="edge2" class="edge">
<title>AdminPenaltiesComponent&#45;&gt;AppModule</title>
<path fill="none" stroke="black" d="M6641,-122.15C6641,-145.76 6641,-184 6641,-184 6641,-184 3238.81,-184 3238.81,-184"/>
<polygon fill="black" stroke="black" points="3238.81,-180.5 3228.81,-184 3238.81,-187.5 3238.81,-180.5"/>
</g>
<!-- AdminResultsComponent -->
<g id="node3" class="node">
<title>AdminResultsComponent</title>
<polygon fill="#ffffb3" stroke="black" points="6537.94,-122 6376.06,-122 6376.06,-86 6537.94,-86 6537.94,-122"/>
<text text-anchor="middle" x="6457" y="-99.8" font-family="Times,serif" font-size="14.00">AdminResultsComponent</text>
</g>
<!-- AdminResultsComponent&#45;&gt;AppModule -->
<g id="edge3" class="edge">
<title>AdminResultsComponent&#45;&gt;AppModule</title>
<path fill="none" stroke="black" d="M6457,-122.09C6457,-145.13 6457,-182 6457,-182 6457,-182 3238.94,-182 3238.94,-182"/>
<polygon fill="black" stroke="black" points="3238.94,-178.5 3228.94,-182 3238.94,-185.5 3238.94,-178.5"/>
</g>
<!-- AdminStatuteComponent -->
<g id="node4" class="node">
<title>AdminStatuteComponent</title>
<polygon fill="#ffffb3" stroke="black" points="6358.6,-122 6199.4,-122 6199.4,-86 6358.6,-86 6358.6,-122"/>
<text text-anchor="middle" x="6279" y="-99.8" font-family="Times,serif" font-size="14.00">AdminStatuteComponent</text>
</g>
<!-- AdminStatuteComponent&#45;&gt;AppModule -->
<g id="edge4" class="edge">
<title>AdminStatuteComponent&#45;&gt;AppModule</title>
<path fill="none" stroke="black" d="M6279,-122.25C6279,-145.02 6279,-181 6279,-181 6279,-181 3238.66,-181 3238.66,-181"/>
<polygon fill="black" stroke="black" points="3238.66,-177.5 3228.66,-181 3238.66,-184.5 3238.66,-177.5"/>
</g>
<!-- AppComponent -->
<g id="node5" class="node">
<title>AppComponent</title>
<polygon fill="#ffffb3" stroke="black" points="6181.94,-122 6076.06,-122 6076.06,-86 6181.94,-86 6181.94,-122"/>
<text text-anchor="middle" x="6129" y="-99.8" font-family="Times,serif" font-size="14.00">AppComponent</text>
</g>
<!-- AppComponent&#45;&gt;AppModule -->
<g id="edge5" class="edge">
<title>AppComponent&#45;&gt;AppModule</title>
<path fill="none" stroke="black" d="M6129,-122.16C6129,-144.35 6129,-179 6129,-179 6129,-179 3238.87,-179 3238.87,-179"/>
<polygon fill="black" stroke="black" points="3238.87,-175.5 3228.87,-179 3238.87,-182.5 3238.87,-175.5"/>
</g>
<!-- DriversComponent -->
<g id="node6" class="node">
<title>DriversComponent</title>
<polygon fill="#ffffb3" stroke="black" points="6058.81,-122 5935.19,-122 5935.19,-86 6058.81,-86 6058.81,-122"/>
<text text-anchor="middle" x="5997" y="-99.8" font-family="Times,serif" font-size="14.00">DriversComponent</text>
</g>
<!-- DriversComponent&#45;&gt;AppModule -->
<g id="edge6" class="edge">
<title>DriversComponent&#45;&gt;AppModule</title>
<path fill="none" stroke="black" d="M5997,-122.04C5997,-143.66 5997,-177 5997,-177 5997,-177 3238.9,-177 3238.9,-177"/>
<polygon fill="black" stroke="black" points="3238.9,-173.5 3228.9,-177 3238.9,-180.5 3238.9,-173.5"/>
</g>
<!-- DriversInfoComponent -->
<g id="node7" class="node">
<title>DriversInfoComponent</title>
<polygon fill="#ffffb3" stroke="black" points="5917.13,-122 5770.87,-122 5770.87,-86 5917.13,-86 5917.13,-122"/>
<text text-anchor="middle" x="5844" y="-99.8" font-family="Times,serif" font-size="14.00">DriversInfoComponent</text>
</g>
<!-- DriversInfoComponent&#45;&gt;AppModule -->
<g id="edge7" class="edge">
<title>DriversInfoComponent&#45;&gt;AppModule</title>
<path fill="none" stroke="black" d="M5844,-122.28C5844,-143.32 5844,-175 5844,-175 5844,-175 3238.74,-175 3238.74,-175"/>
<polygon fill="black" stroke="black" points="3238.74,-171.5 3228.74,-175 3238.74,-178.5 3238.74,-171.5"/>
</g>
<!-- FantasyClasificationComponent -->
<g id="node8" class="node">
<title>FantasyClasificationComponent</title>
<polygon fill="#ffffb3" stroke="black" points="5752.42,-122 5555.58,-122 5555.58,-86 5752.42,-86 5752.42,-122"/>
<text text-anchor="middle" x="5654" y="-99.8" font-family="Times,serif" font-size="14.00">FantasyClasificationComponent</text>
</g>
<!-- FantasyClasificationComponent&#45;&gt;AppModule -->
<g id="edge8" class="edge">
<title>FantasyClasificationComponent&#45;&gt;AppModule</title>
<path fill="none" stroke="black" d="M5654,-122.03C5654,-142.77 5654,-174 5654,-174 5654,-174 3238.78,-174 3238.78,-174"/>
<polygon fill="black" stroke="black" points="3238.78,-170.5 3228.78,-174 3238.78,-177.5 3238.78,-170.5"/>
</g>
<!-- FantasyComponent -->
<g id="node9" class="node">
<title>FantasyComponent</title>
<polygon fill="#ffffb3" stroke="black" points="5537.38,-122 5412.62,-122 5412.62,-86 5537.38,-86 5537.38,-122"/>
<text text-anchor="middle" x="5475" y="-99.8" font-family="Times,serif" font-size="14.00">FantasyComponent</text>
</g>
<!-- FantasyComponent&#45;&gt;AppModule -->
<g id="edge9" class="edge">
<title>FantasyComponent&#45;&gt;AppModule</title>
<path fill="none" stroke="black" d="M5475,-122.22C5475,-142.37 5475,-172 5475,-172 5475,-172 3238.67,-172 3238.67,-172"/>
<polygon fill="black" stroke="black" points="3238.67,-168.5 3228.67,-172 3238.67,-175.5 3238.67,-168.5"/>
</g>
<!-- FantasyDialogTeamComponent -->
<g id="node10" class="node">
<title>FantasyDialogTeamComponent</title>
<polygon fill="#ffffb3" stroke="black" points="5394.35,-122 5199.65,-122 5199.65,-86 5394.35,-86 5394.35,-122"/>
<text text-anchor="middle" x="5297" y="-99.8" font-family="Times,serif" font-size="14.00">FantasyDialogTeamComponent</text>
</g>
<!-- FantasyDialogTeamComponent&#45;&gt;AppModule -->
<g id="edge10" class="edge">
<title>FantasyDialogTeamComponent&#45;&gt;AppModule</title>
<path fill="none" stroke="black" d="M5297,-122.03C5297,-141.58 5297,-170 5297,-170 5297,-170 3238.67,-170 3238.67,-170"/>
<polygon fill="black" stroke="black" points="3238.67,-166.5 3228.67,-170 3238.67,-173.5 3238.67,-166.5"/>
</g>
<!-- FantasyHomeComponent -->
<g id="node11" class="node">
<title>FantasyHomeComponent</title>
<polygon fill="#ffffb3" stroke="black" points="5181.59,-122 5022.41,-122 5022.41,-86 5181.59,-86 5181.59,-122"/>
<text text-anchor="middle" x="5102" y="-99.8" font-family="Times,serif" font-size="14.00">FantasyHomeComponent</text>
</g>
<!-- FantasyHomeComponent&#45;&gt;AppModule -->
<g id="edge11" class="edge">
<title>FantasyHomeComponent&#45;&gt;AppModule</title>
<path fill="none" stroke="black" d="M5102,-122.11C5102,-141.34 5102,-169 5102,-169 5102,-169 3238.78,-169 3238.78,-169"/>
<polygon fill="black" stroke="black" points="3238.78,-165.5 3228.78,-169 3238.78,-172.5 3238.78,-165.5"/>
</g>
<!-- FantasyLoginComponent -->
<g id="node12" class="node">
<title>FantasyLoginComponent</title>
<polygon fill="#ffffb3" stroke="black" points="5004.32,-122 4845.68,-122 4845.68,-86 5004.32,-86 5004.32,-122"/>
<text text-anchor="middle" x="4925" y="-99.8" font-family="Times,serif" font-size="14.00">FantasyLoginComponent</text>
</g>
<!-- FantasyLoginComponent&#45;&gt;AppModule -->
<g id="edge12" class="edge">
<title>FantasyLoginComponent&#45;&gt;AppModule</title>
<path fill="none" stroke="black" d="M4925,-122.22C4925,-140.83 4925,-167 4925,-167 4925,-167 3238.67,-167 3238.67,-167"/>
<polygon fill="black" stroke="black" points="3238.67,-163.5 3228.67,-167 3238.67,-170.5 3238.67,-163.5"/>
</g>
<!-- FantasyRecoverPasswordComponent -->
<g id="node13" class="node">
<title>FantasyRecoverPasswordComponent</title>
<polygon fill="#ffffb3" stroke="black" points="4827.67,-122 4602.33,-122 4602.33,-86 4827.67,-86 4827.67,-122"/>
<text text-anchor="middle" x="4715" y="-99.8" font-family="Times,serif" font-size="14.00">FantasyRecoverPasswordComponent</text>
</g>
<!-- FantasyRecoverPasswordComponent&#45;&gt;AppModule -->
<g id="edge13" class="edge">
<title>FantasyRecoverPasswordComponent&#45;&gt;AppModule</title>
<path fill="none" stroke="black" d="M4715,-122.3C4715,-140.27 4715,-165 4715,-165 4715,-165 3238.66,-165 3238.66,-165"/>
<polygon fill="black" stroke="black" points="3238.66,-161.5 3228.66,-165 3238.66,-168.5 3238.66,-161.5"/>
</g>
<!-- FantasyRegisterComponent -->
<g id="node14" class="node">
<title>FantasyRegisterComponent</title>
<polygon fill="#ffffb3" stroke="black" points="4584.53,-122 4413.47,-122 4413.47,-86 4584.53,-86 4584.53,-122"/>
<text text-anchor="middle" x="4499" y="-99.8" font-family="Times,serif" font-size="14.00">FantasyRegisterComponent</text>
</g>
<!-- FantasyRegisterComponent&#45;&gt;AppModule -->
<g id="edge14" class="edge">
<title>FantasyRegisterComponent&#45;&gt;AppModule</title>
<path fill="none" stroke="black" d="M4499,-122.02C4499,-139.37 4499,-163 4499,-163 4499,-163 3238.8,-163 3238.8,-163"/>
<polygon fill="black" stroke="black" points="3238.8,-159.5 3228.8,-163 3238.8,-166.5 3238.8,-159.5"/>
</g>
<!-- FantasyTeamComponent -->
<g id="node15" class="node">
<title>FantasyTeamComponent</title>
<polygon fill="#ffffb3" stroke="black" points="4395.25,-122 4238.75,-122 4238.75,-86 4395.25,-86 4395.25,-122"/>
<text text-anchor="middle" x="4317" y="-99.8" font-family="Times,serif" font-size="14.00">FantasyTeamComponent</text>
</g>
<!-- FantasyTeamComponent&#45;&gt;AppModule -->
<g id="edge15" class="edge">
<title>FantasyTeamComponent&#45;&gt;AppModule</title>
<path fill="none" stroke="black" d="M4317,-122.03C4317,-139.06 4317,-162 4317,-162 4317,-162 3238.9,-162 3238.9,-162"/>
<polygon fill="black" stroke="black" points="3238.9,-158.5 3228.9,-162 3238.9,-165.5 3238.9,-158.5"/>
</g>
<!-- FantasyTeamDialogPointComponent -->
<g id="node16" class="node">
<title>FantasyTeamDialogPointComponent</title>
<polygon fill="#ffffb3" stroke="black" points="4220.42,-122 3995.58,-122 3995.58,-86 4220.42,-86 4220.42,-122"/>
<text text-anchor="middle" x="4108" y="-99.8" font-family="Times,serif" font-size="14.00">FantasyTeamDialogPointComponent</text>
</g>
<!-- FantasyTeamDialogPointComponent&#45;&gt;AppModule -->
<g id="edge16" class="edge">
<title>FantasyTeamDialogPointComponent&#45;&gt;AppModule</title>
<path fill="none" stroke="black" d="M4108,-122.03C4108,-138.4 4108,-160 4108,-160 4108,-160 3238.66,-160 3238.66,-160"/>
<polygon fill="black" stroke="black" points="3238.66,-156.5 3228.66,-160 3238.66,-163.5 3238.66,-156.5"/>
</g>
<!-- FantasyTeamDialogPriceComponent -->
<g id="node17" class="node">
<title>FantasyTeamDialogPriceComponent</title>
<polygon fill="#ffffb3" stroke="black" points="3977.62,-122 3754.38,-122 3754.38,-86 3977.62,-86 3977.62,-122"/>
<text text-anchor="middle" x="3866" y="-99.8" font-family="Times,serif" font-size="14.00">FantasyTeamDialogPriceComponent</text>
</g>
<!-- FantasyTeamDialogPriceComponent&#45;&gt;AppModule -->
<g id="edge17" class="edge">
<title>FantasyTeamDialogPriceComponent&#45;&gt;AppModule</title>
<path fill="none" stroke="black" d="M3866,-122.28C3866,-137.95 3866,-158 3866,-158 3866,-158 3238.71,-158 3238.71,-158"/>
<polygon fill="black" stroke="black" points="3238.71,-154.5 3228.71,-158 3238.71,-161.5 3238.71,-154.5"/>
</g>
<!-- FormulaTableComponent -->
<g id="node18" class="node">
<title>FormulaTableComponent</title>
<polygon fill="#ffffb3" stroke="black" points="3736.14,-122 3575.86,-122 3575.86,-86 3736.14,-86 3736.14,-122"/>
<text text-anchor="middle" x="3656" y="-99.8" font-family="Times,serif" font-size="14.00">FormulaTableComponent</text>
</g>
<!-- FormulaTableComponent&#45;&gt;AppModule -->
<g id="edge18" class="edge">
<title>FormulaTableComponent&#45;&gt;AppModule</title>
<path fill="none" stroke="black" d="M3656,-122.24C3656,-137.57 3656,-157 3656,-157 3656,-157 3239.03,-157 3239.03,-157"/>
<polygon fill="black" stroke="black" points="3239.03,-153.5 3229.03,-157 3239.03,-160.5 3239.03,-153.5"/>
</g>
<!-- HeaderComponent -->
<g id="node19" class="node">
<title>HeaderComponent</title>
<polygon fill="#ffffb3" stroke="black" points="3557.74,-122 3436.26,-122 3436.26,-86 3557.74,-86 3557.74,-122"/>
<text text-anchor="middle" x="3497" y="-99.8" font-family="Times,serif" font-size="14.00">HeaderComponent</text>
</g>
<!-- HeaderComponent&#45;&gt;AppModule -->
<g id="edge19" class="edge">
<title>HeaderComponent&#45;&gt;AppModule</title>
<path fill="none" stroke="black" d="M3497,-122.12C3497,-136.78 3497,-155 3497,-155 3497,-155 3238.81,-155 3238.81,-155"/>
<polygon fill="black" stroke="black" points="3238.81,-151.5 3228.81,-155 3238.81,-158.5 3238.81,-151.5"/>
</g>
<!-- HomeComponent -->
<g id="node20" class="node">
<title>HomeComponent</title>
<polygon fill="#ffffb3" stroke="black" points="3417.55,-122 3302.45,-122 3302.45,-86 3417.55,-86 3417.55,-122"/>
<text text-anchor="middle" x="3360" y="-99.8" font-family="Times,serif" font-size="14.00">HomeComponent</text>
</g>
<!-- HomeComponent&#45;&gt;AppModule -->
<g id="edge20" class="edge">
<title>HomeComponent&#45;&gt;AppModule</title>
<path fill="none" stroke="black" d="M3360,-122.25C3360,-136.18 3360,-153 3360,-153 3360,-153 3238.88,-153 3238.88,-153"/>
<polygon fill="black" stroke="black" points="3238.88,-149.5 3228.88,-153 3238.88,-156.5 3238.88,-149.5"/>
</g>
<!-- HomeConfigurationComponent -->
<g id="node21" class="node">
<title>HomeConfigurationComponent</title>
<polygon fill="#ffffb3" stroke="black" points="3284.09,-122 3089.91,-122 3089.91,-86 3284.09,-86 3284.09,-122"/>
<text text-anchor="middle" x="3187" y="-99.8" font-family="Times,serif" font-size="14.00">HomeConfigurationComponent</text>
</g>
<!-- HomeConfigurationComponent&#45;&gt;AppModule -->
<g id="edge21" class="edge">
<title>HomeConfigurationComponent&#45;&gt;AppModule</title>
<path fill="none" stroke="black" d="M3187,-122.11C3187,-122.11 3187,-140.99 3187,-140.99"/>
<polygon fill="black" stroke="black" points="3183.5,-140.99 3187,-150.99 3190.5,-140.99 3183.5,-140.99"/>
</g>
<!-- HomeDriversComponent -->
<g id="node22" class="node">
<title>HomeDriversComponent</title>
<polygon fill="#ffffb3" stroke="black" points="3071.52,-122 2914.48,-122 2914.48,-86 3071.52,-86 3071.52,-122"/>
<text text-anchor="middle" x="2993" y="-99.8" font-family="Times,serif" font-size="14.00">HomeDriversComponent</text>
</g>
<!-- HomeDriversComponent&#45;&gt;AppModule -->
<g id="edge22" class="edge">
<title>HomeDriversComponent&#45;&gt;AppModule</title>
<path fill="none" stroke="black" d="M2993,-122.25C2993,-136.18 2993,-153 2993,-153 2993,-153 3134.9,-153 3134.9,-153"/>
<polygon fill="black" stroke="black" points="3134.9,-156.5 3144.9,-153 3134.9,-149.5 3134.9,-156.5"/>
</g>
<!-- HomeTeamsComponent -->
<g id="node23" class="node">
<title>HomeTeamsComponent</title>
<polygon fill="#ffffb3" stroke="black" points="2896.36,-122 2743.64,-122 2743.64,-86 2896.36,-86 2896.36,-122"/>
<text text-anchor="middle" x="2820" y="-99.8" font-family="Times,serif" font-size="14.00">HomeTeamsComponent</text>
</g>
<!-- HomeTeamsComponent&#45;&gt;AppModule -->
<g id="edge23" class="edge">
<title>HomeTeamsComponent&#45;&gt;AppModule</title>
<path fill="none" stroke="black" d="M2820,-122.12C2820,-136.78 2820,-155 2820,-155 2820,-155 3135.26,-155 3135.26,-155"/>
<polygon fill="black" stroke="black" points="3135.26,-158.5 3145.26,-155 3135.26,-151.5 3135.26,-158.5"/>
</g>
<!-- IsNanPipe -->
<g id="node24" class="node">
<title>IsNanPipe</title>
<polygon fill="#ffffb3" stroke="black" points="2725.31,-122 2650.69,-122 2650.69,-86 2725.31,-86 2725.31,-122"/>
<text text-anchor="middle" x="2688" y="-99.8" font-family="Times,serif" font-size="14.00">IsNanPipe</text>
</g>
<!-- IsNanPipe&#45;&gt;AppModule -->
<g id="edge24" class="edge">
<title>IsNanPipe&#45;&gt;AppModule</title>
<path fill="none" stroke="black" d="M2688,-122.24C2688,-137.57 2688,-157 2688,-157 2688,-157 3135.31,-157 3135.31,-157"/>
<polygon fill="black" stroke="black" points="3135.31,-160.5 3145.31,-157 3135.31,-153.5 3135.31,-160.5"/>
</g>
<!-- LoaderComponent -->
<g id="node25" class="node">
<title>LoaderComponent</title>
<polygon fill="#ffffb3" stroke="black" points="2632.47,-122 2511.53,-122 2511.53,-86 2632.47,-86 2632.47,-122"/>
<text text-anchor="middle" x="2572" y="-99.8" font-family="Times,serif" font-size="14.00">LoaderComponent</text>
</g>
<!-- LoaderComponent&#45;&gt;AppModule -->
<g id="edge25" class="edge">
<title>LoaderComponent&#45;&gt;AppModule</title>
<path fill="none" stroke="black" d="M2572,-122.28C2572,-137.95 2572,-158 2572,-158 2572,-158 3135.21,-158 3135.21,-158"/>
<polygon fill="black" stroke="black" points="3135.21,-161.5 3145.21,-158 3135.21,-154.5 3135.21,-161.5"/>
</g>
<!-- LoginComponent -->
<g id="node26" class="node">
<title>LoginComponent</title>
<polygon fill="#ffffb3" stroke="black" points="2493.28,-122 2378.72,-122 2378.72,-86 2493.28,-86 2493.28,-122"/>
<text text-anchor="middle" x="2436" y="-99.8" font-family="Times,serif" font-size="14.00">LoginComponent</text>
</g>
<!-- LoginComponent&#45;&gt;AppModule -->
<g id="edge26" class="edge">
<title>LoginComponent&#45;&gt;AppModule</title>
<path fill="none" stroke="black" d="M2436,-122.03C2436,-138.4 2436,-160 2436,-160 2436,-160 3135.28,-160 3135.28,-160"/>
<polygon fill="black" stroke="black" points="3135.28,-163.5 3145.28,-160 3135.28,-156.5 3135.28,-163.5"/>
</g>
<!-- PageNotFoundComponent -->
<g id="node27" class="node">
<title>PageNotFoundComponent</title>
<polygon fill="#ffffb3" stroke="black" points="2360.82,-122 2195.18,-122 2195.18,-86 2360.82,-86 2360.82,-122"/>
<text text-anchor="middle" x="2278" y="-99.8" font-family="Times,serif" font-size="14.00">PageNotFoundComponent</text>
</g>
<!-- PageNotFoundComponent&#45;&gt;AppModule -->
<g id="edge27" class="edge">
<title>PageNotFoundComponent&#45;&gt;AppModule</title>
<path fill="none" stroke="black" d="M2278,-122.03C2278,-139.06 2278,-162 2278,-162 2278,-162 3135.28,-162 3135.28,-162"/>
<polygon fill="black" stroke="black" points="3135.28,-165.5 3145.28,-162 3135.28,-158.5 3135.28,-165.5"/>
</g>
<!-- PricePipe -->
<g id="node28" class="node">
<title>PricePipe</title>
<polygon fill="#ffffb3" stroke="black" points="2177.65,-122 2108.35,-122 2108.35,-86 2177.65,-86 2177.65,-122"/>
<text text-anchor="middle" x="2143" y="-99.8" font-family="Times,serif" font-size="14.00">PricePipe</text>
</g>
<!-- PricePipe&#45;&gt;AppModule -->
<g id="edge28" class="edge">
<title>PricePipe&#45;&gt;AppModule</title>
<path fill="none" stroke="black" d="M2143,-122.02C2143,-139.37 2143,-163 2143,-163 2143,-163 3135.11,-163 3135.11,-163"/>
<polygon fill="black" stroke="black" points="3135.11,-166.5 3145.11,-163 3135.11,-159.5 3135.11,-166.5"/>
</g>
<!-- ResultsComponent -->
<g id="node29" class="node">
<title>ResultsComponent</title>
<polygon fill="#ffffb3" stroke="black" points="2090.05,-122 1967.95,-122 1967.95,-86 2090.05,-86 2090.05,-122"/>
<text text-anchor="middle" x="2029" y="-99.8" font-family="Times,serif" font-size="14.00">ResultsComponent</text>
</g>
<!-- ResultsComponent&#45;&gt;AppModule -->
<g id="edge29" class="edge">
<title>ResultsComponent&#45;&gt;AppModule</title>
<path fill="none" stroke="black" d="M2029,-122.3C2029,-140.27 2029,-165 2029,-165 2029,-165 3135.1,-165 3135.1,-165"/>
<polygon fill="black" stroke="black" points="3135.1,-168.5 3145.1,-165 3135.1,-161.5 3135.1,-168.5"/>
</g>
<!-- SpaceToUnderscorePipe -->
<g id="node30" class="node">
<title>SpaceToUnderscorePipe</title>
<polygon fill="#ffffb3" stroke="black" points="1950.38,-122 1795.62,-122 1795.62,-86 1950.38,-86 1950.38,-122"/>
<text text-anchor="middle" x="1873" y="-99.8" font-family="Times,serif" font-size="14.00">SpaceToUnderscorePipe</text>
</g>
<!-- SpaceToUnderscorePipe&#45;&gt;AppModule -->
<g id="edge30" class="edge">
<title>SpaceToUnderscorePipe&#45;&gt;AppModule</title>
<path fill="none" stroke="black" d="M1873,-122.22C1873,-140.83 1873,-167 1873,-167 1873,-167 3135.14,-167 3135.14,-167"/>
<polygon fill="black" stroke="black" points="3135.14,-170.5 3145.14,-167 3135.14,-163.5 3135.14,-170.5"/>
</g>
<!-- StatuteComponent -->
<g id="node31" class="node">
<title>StatuteComponent</title>
<polygon fill="#ffffb3" stroke="black" points="1778.22,-122 1657.78,-122 1657.78,-86 1778.22,-86 1778.22,-122"/>
<text text-anchor="middle" x="1718" y="-99.8" font-family="Times,serif" font-size="14.00">StatuteComponent</text>
</g>
<!-- StatuteComponent&#45;&gt;AppModule -->
<g id="edge31" class="edge">
<title>StatuteComponent&#45;&gt;AppModule</title>
<path fill="none" stroke="black" d="M1718,-122.11C1718,-141.34 1718,-169 1718,-169 1718,-169 3135.01,-169 3135.01,-169"/>
<polygon fill="black" stroke="black" points="3135.01,-172.5 3145.01,-169 3135.01,-165.5 3135.01,-172.5"/>
</g>
<!-- TeamsComponent -->
<g id="node32" class="node">
<title>TeamsComponent</title>
<polygon fill="#ffffb3" stroke="black" points="1640.15,-122 1521.85,-122 1521.85,-86 1640.15,-86 1640.15,-122"/>
<text text-anchor="middle" x="1581" y="-99.8" font-family="Times,serif" font-size="14.00">TeamsComponent</text>
</g>
<!-- TeamsComponent&#45;&gt;AppModule -->
<g id="edge32" class="edge">
<title>TeamsComponent&#45;&gt;AppModule</title>
<path fill="none" stroke="black" d="M1581,-122.03C1581,-141.58 1581,-170 1581,-170 1581,-170 3135.28,-170 3135.28,-170"/>
<polygon fill="black" stroke="black" points="3135.28,-173.5 3145.28,-170 3135.28,-166.5 3135.28,-173.5"/>
</g>
<!-- TeamsInfoComponent -->
<g id="node33" class="node">
<title>TeamsInfoComponent</title>
<polygon fill="#ffffb3" stroke="black" points="1503.97,-122 1362.03,-122 1362.03,-86 1503.97,-86 1503.97,-122"/>
<text text-anchor="middle" x="1433" y="-99.8" font-family="Times,serif" font-size="14.00">TeamsInfoComponent</text>
</g>
<!-- TeamsInfoComponent&#45;&gt;AppModule -->
<g id="edge33" class="edge">
<title>TeamsInfoComponent&#45;&gt;AppModule</title>
<path fill="none" stroke="black" d="M1433,-122.22C1433,-142.37 1433,-172 1433,-172 1433,-172 3134.94,-172 3134.94,-172"/>
<polygon fill="black" stroke="black" points="3134.94,-175.5 3144.94,-172 3134.94,-168.5 3134.94,-175.5"/>
</g>
<!-- AppComponent  -->
<g id="node36" class="node">
<title>AppComponent </title>
<polygon fill="#80b1d3" stroke="black" points="3241.44,-252 3132.56,-252 3132.56,-216 3241.44,-216 3241.44,-252"/>
<text text-anchor="middle" x="3187" y="-229.8" font-family="Times,serif" font-size="14.00">AppComponent </text>
</g>
<!-- AppModule&#45;&gt;AppComponent  -->
<g id="edge35" class="edge">
<title>AppModule&#45;&gt;AppComponent </title>
<path fill="none" stroke="black" stroke-dasharray="1,5" d="M3187,-187.11C3187,-187.11 3187,-205.99 3187,-205.99"/>
<polygon fill="black" stroke="black" points="3183.5,-205.99 3187,-215.99 3190.5,-205.99 3183.5,-205.99"/>
</g>
<!-- AppRoutingModule -->
<g id="node35" class="node">
<title>AppRoutingModule</title>
<polygon fill="#8dd3c7" stroke="black" points="152.27,-122 149.27,-126 128.27,-126 125.27,-122 23.73,-122 23.73,-86 152.27,-86 152.27,-122"/>
<text text-anchor="middle" x="88" y="-99.8" font-family="Times,serif" font-size="14.00">AppRoutingModule</text>
</g>
<!-- AppRoutingModule&#45;&gt;AppModule -->
<g id="edge34" class="edge">
<title>AppRoutingModule&#45;&gt;AppModule</title>
<path fill="none" stroke="black" d="M88,-122.2C88,-146.36 88,-186 88,-186 88,-186 3135.25,-186 3135.25,-186"/>
<polygon fill="black" stroke="black" points="3135.25,-189.5 3145.25,-186 3135.25,-182.5 3135.25,-189.5"/>
</g>
<!-- AdminGuard -->
<g id="node37" class="node">
<title>AdminGuard</title>
<ellipse fill="#fdb462" stroke="black" cx="1276" cy="-104" rx="61.98" ry="18"/>
<text text-anchor="middle" x="1276" y="-99.8" font-family="Times,serif" font-size="14.00">AdminGuard</text>
</g>
<!-- AdminGuard&#45;&gt;AppModule -->
<g id="edge36" class="edge">
<title>AdminGuard&#45;&gt;AppModule</title>
<path fill="none" stroke="black" d="M1276,-122.03C1276,-142.77 1276,-174 1276,-174 1276,-174 3135.31,-174 3135.31,-174"/>
<polygon fill="black" stroke="black" points="3135.31,-177.5 3145.31,-174 3135.31,-170.5 3135.31,-177.5"/>
</g>
<!-- FantasyTeamGuard -->
<g id="node38" class="node">
<title>FantasyTeamGuard</title>
<ellipse fill="#fdb462" stroke="black" cx="1109" cy="-104" rx="87.38" ry="18"/>
<text text-anchor="middle" x="1109" y="-99.8" font-family="Times,serif" font-size="14.00">FantasyTeamGuard</text>
</g>
<!-- FantasyTeamGuard&#45;&gt;AppModule -->
<g id="edge37" class="edge">
<title>FantasyTeamGuard&#45;&gt;AppModule</title>
<path fill="none" stroke="black" d="M1109,-122.28C1109,-143.32 1109,-175 1109,-175 1109,-175 3135.02,-175 3135.02,-175"/>
<polygon fill="black" stroke="black" points="3135.02,-178.5 3145.02,-175 3135.02,-171.5 3135.02,-178.5"/>
</g>
<!-- LoaderInterceptor -->
<g id="node39" class="node">
<title>LoaderInterceptor</title>
<ellipse fill="#fdb462" stroke="black" cx="923" cy="-104" rx="80.98" ry="18"/>
<text text-anchor="middle" x="923" y="-99.8" font-family="Times,serif" font-size="14.00">LoaderInterceptor</text>
</g>
<!-- LoaderInterceptor&#45;&gt;AppModule -->
<g id="edge38" class="edge">
<title>LoaderInterceptor&#45;&gt;AppModule</title>
<path fill="none" stroke="black" d="M923,-122.04C923,-143.66 923,-177 923,-177 923,-177 3135.28,-177 3135.28,-177"/>
<polygon fill="black" stroke="black" points="3135.28,-180.5 3145.28,-177 3135.28,-173.5 3135.28,-180.5"/>
</g>
<!-- LoaderService -->
<g id="node40" class="node">
<title>LoaderService</title>
<ellipse fill="#fdb462" stroke="black" cx="757" cy="-104" rx="67.17" ry="18"/>
<text text-anchor="middle" x="757" y="-99.8" font-family="Times,serif" font-size="14.00">LoaderService</text>
</g>
<!-- LoaderService&#45;&gt;AppModule -->
<g id="edge39" class="edge">
<title>LoaderService&#45;&gt;AppModule</title>
<path fill="none" stroke="black" d="M757,-122.16C757,-144.35 757,-179 757,-179 757,-179 3135.33,-179 3135.33,-179"/>
<polygon fill="black" stroke="black" points="3135.33,-182.5 3145.33,-179 3135.33,-175.5 3135.33,-182.5"/>
</g>
<!-- LoginGuard -->
<g id="node41" class="node">
<title>LoginGuard</title>
<ellipse fill="#fdb462" stroke="black" cx="613" cy="-104" rx="58.47" ry="18"/>
<text text-anchor="middle" x="613" y="-99.8" font-family="Times,serif" font-size="14.00">LoginGuard</text>
</g>
<!-- LoginGuard&#45;&gt;AppModule -->
<g id="edge40" class="edge">
<title>LoginGuard&#45;&gt;AppModule</title>
<path fill="none" stroke="black" d="M613,-122.25C613,-145.02 613,-181 613,-181 613,-181 3135.26,-181 3135.26,-181"/>
<polygon fill="black" stroke="black" points="3135.26,-184.5 3145.26,-181 3135.26,-177.5 3135.26,-184.5"/>
</g>
<!-- RecoverPasswordGuard -->
<g id="node42" class="node">
<title>RecoverPasswordGuard</title>
<ellipse fill="#fdb462" stroke="black" cx="432" cy="-104" rx="104.2" ry="18"/>
<text text-anchor="middle" x="432" y="-99.8" font-family="Times,serif" font-size="14.00">RecoverPasswordGuard</text>
</g>
<!-- RecoverPasswordGuard&#45;&gt;AppModule -->
<g id="edge41" class="edge">
<title>RecoverPasswordGuard&#45;&gt;AppModule</title>
<path fill="none" stroke="black" d="M432,-122.09C432,-145.13 432,-182 432,-182 432,-182 3135.1,-182 3135.1,-182"/>
<polygon fill="black" stroke="black" points="3135.1,-185.5 3145.1,-182 3135.1,-178.5 3135.1,-185.5"/>
</g>
<!-- ThemeService -->
<g id="node43" class="node">
<title>ThemeService</title>
<ellipse fill="#fdb462" stroke="black" cx="243" cy="-104" rx="66.61" ry="18"/>
<text text-anchor="middle" x="243" y="-99.8" font-family="Times,serif" font-size="14.00">ThemeService</text>
</g>
<!-- ThemeService&#45;&gt;AppModule -->
<g id="edge42" class="edge">
<title>ThemeService&#45;&gt;AppModule</title>
<path fill="none" stroke="black" d="M243,-122.15C243,-145.76 243,-184 243,-184 243,-184 3135.1,-184 3135.1,-184"/>
<polygon fill="black" stroke="black" points="3135.1,-187.5 3145.1,-184 3135.1,-180.5 3135.1,-187.5"/>
</g>
</g>
</svg>
