<?xml version="1.0" encoding="UTF-8" standalone="no"?>
<!DOCTYPE svg PUBLIC "-//W3C//DTD SVG 1.1//EN"
 "http://www.w3.org/Graphics/SVG/1.1/DTD/svg11.dtd">
<!-- Generated by graphviz version 2.47.0 (20210316.0004)
 -->
<!-- Title: dependencies Pages: 1 -->
<svg width="6412pt" height="284pt"
 viewBox="0.00 0.00 6412.00 284.00" xmlns="http://www.w3.org/2000/svg" xmlns:xlink="http://www.w3.org/1999/xlink">
<g id="graph0" class="graph" transform="scale(1 1) rotate(0) translate(4 280)">
<title>dependencies</title>
<polygon fill="white" stroke="transparent" points="-4,4 -4,-280 6408,-280 6408,4 -4,4"/>
<text text-anchor="start" x="3181.01" y="-42.4" font-family="Times-12" font-weight="bold" font-size="14.00">Legend</text>
<polygon fill="#ffffb3" stroke="transparent" points="2968,-10 2968,-30 2988,-30 2988,-10 2968,-10"/>
<text text-anchor="start" x="2991.63" y="-15.4" font-family="Times-12" font-size="14.00"> &#160;Declarations</text>
<polygon fill="#8dd3c7" stroke="transparent" points="3081,-10 3081,-30 3101,-30 3101,-10 3081,-10"/>
<text text-anchor="start" x="3104.73" y="-15.4" font-family="Times-12" font-size="14.00"> &#160;Module</text>
<polygon fill="#80b1d3" stroke="transparent" points="3167,-10 3167,-30 3187,-30 3187,-10 3167,-10"/>
<text text-anchor="start" x="3190.78" y="-15.4" font-family="Times-12" font-size="14.00"> &#160;Bootstrap</text>
<polygon fill="#fdb462" stroke="transparent" points="3264,-10 3264,-30 3284,-30 3284,-10 3264,-10"/>
<text text-anchor="start" x="3287.67" y="-15.4" font-family="Times-12" font-size="14.00"> &#160;Providers</text>
<polygon fill="#fb8072" stroke="transparent" points="3360,-10 3360,-30 3380,-30 3380,-10 3360,-10"/>
<text text-anchor="start" x="3383.73" y="-15.4" font-family="Times-12" font-size="14.00"> &#160;Exports</text>
<g id="clust1" class="cluster">
<title>cluster_AppModule</title>
<polygon fill="none" stroke="black" stroke-dasharray="1,5" points="8,-70 8,-268 6396,-268 6396,-70 8,-70"/>
</g>
<g id="clust2" class="cluster">
<title>cluster_AppModule_declarations</title>
<polygon fill="none" stroke="black" points="1354,-78 1354,-130 6388,-130 6388,-78 1354,-78"/>
</g>
<g id="clust34" class="cluster">
<title>cluster_AppModule_imports</title>
<polygon fill="none" stroke="black" points="1202,-78 1202,-130 1346,-130 1346,-78 1202,-78"/>
</g>
<g id="clust36" class="cluster">
<title>cluster_AppModule_bootstrap</title>
<polygon fill="none" stroke="black" points="2931,-208 2931,-260 3055,-260 3055,-208 2931,-208"/>
</g>
<g id="clust37" class="cluster">
<title>cluster_AppModule_providers</title>
<polygon fill="none" stroke="black" points="16,-78 16,-130 1194,-130 1194,-78 16,-78"/>
</g>
<!-- AdminComponent -->
<g id="node1" class="node">
<title>AdminComponent</title>
<polygon fill="#ffffb3" stroke="black" points="6380.22,-122 6259.78,-122 6259.78,-86 6380.22,-86 6380.22,-122"/>
<text text-anchor="middle" x="6320" y="-99.8" font-family="Times,serif" font-size="14.00">AdminComponent</text>
</g>
<!-- AppModule -->
<g id="node32" class="node">
<title>AppModule</title>
<polygon fill="#8dd3c7" stroke="black" points="3034.66,-187 3031.66,-191 3010.66,-191 3007.66,-187 2951.34,-187 2951.34,-151 3034.66,-151 3034.66,-187"/>
<text text-anchor="middle" x="2993" y="-164.8" font-family="Times,serif" font-size="14.00">AppModule</text>
</g>
<!-- AdminComponent&#45;&gt;AppModule -->
<g id="edge1" class="edge">
<title>AdminComponent&#45;&gt;AppModule</title>
<path fill="none" stroke="black" d="M6320,-122.2C6320,-146.36 6320,-186 6320,-186 6320,-186 3044.76,-186 3044.76,-186"/>
<polygon fill="black" stroke="black" points="3044.76,-182.5 3034.76,-186 3044.76,-189.5 3044.76,-182.5"/>
</g>
<!-- AdminPenaltiesComponent -->
<g id="node2" class="node">
<title>AdminPenaltiesComponent</title>
<polygon fill="#ffffb3" stroke="black" points="6242.26,-122 6071.74,-122 6071.74,-86 6242.26,-86 6242.26,-122"/>
<text text-anchor="middle" x="6157" y="-99.8" font-family="Times,serif" font-size="14.00">AdminPenaltiesComponent</text>
</g>
<!-- AdminPenaltiesComponent&#45;&gt;AppModule -->
<g id="edge2" class="edge">
<title>AdminPenaltiesComponent&#45;&gt;AppModule</title>
<path fill="none" stroke="black" d="M6157,-122.15C6157,-145.76 6157,-184 6157,-184 6157,-184 3044.75,-184 3044.75,-184"/>
<polygon fill="black" stroke="black" points="3044.75,-180.5 3034.75,-184 3044.75,-187.5 3044.75,-180.5"/>
</g>
<!-- AdminResultsComponent -->
<g id="node3" class="node">
<title>AdminResultsComponent</title>
<polygon fill="#ffffb3" stroke="black" points="6053.94,-122 5892.06,-122 5892.06,-86 6053.94,-86 6053.94,-122"/>
<text text-anchor="middle" x="5973" y="-99.8" font-family="Times,serif" font-size="14.00">AdminResultsComponent</text>
</g>
<!-- AdminResultsComponent&#45;&gt;AppModule -->
<g id="edge3" class="edge">
<title>AdminResultsComponent&#45;&gt;AppModule</title>
<path fill="none" stroke="black" d="M5973,-122.09C5973,-145.13 5973,-182 5973,-182 5973,-182 3044.84,-182 3044.84,-182"/>
<polygon fill="black" stroke="black" points="3044.84,-178.5 3034.84,-182 3044.84,-185.5 3044.84,-178.5"/>
</g>
<!-- AdminStatuteComponent -->
<g id="node4" class="node">
<title>AdminStatuteComponent</title>
<polygon fill="#ffffb3" stroke="black" points="5874.6,-122 5715.4,-122 5715.4,-86 5874.6,-86 5874.6,-122"/>
<text text-anchor="middle" x="5795" y="-99.8" font-family="Times,serif" font-size="14.00">AdminStatuteComponent</text>
</g>
<!-- AdminStatuteComponent&#45;&gt;AppModule -->
<g id="edge4" class="edge">
<title>AdminStatuteComponent&#45;&gt;AppModule</title>
<path fill="none" stroke="black" d="M5795,-122.01C5795,-144.49 5795,-180 5795,-180 5795,-180 3044.78,-180 3044.78,-180"/>
<polygon fill="black" stroke="black" points="3044.78,-176.5 3034.78,-180 3044.78,-183.5 3044.78,-176.5"/>
</g>
<!-- AppComponent -->
<g id="node5" class="node">
<title>AppComponent</title>
<polygon fill="#ffffb3" stroke="black" points="5697.94,-122 5592.06,-122 5592.06,-86 5697.94,-86 5697.94,-122"/>
<text text-anchor="middle" x="5645" y="-99.8" font-family="Times,serif" font-size="14.00">AppComponent</text>
</g>
<!-- AppComponent&#45;&gt;AppModule -->
<g id="edge5" class="edge">
<title>AppComponent&#45;&gt;AppModule</title>
<path fill="none" stroke="black" d="M5645,-122.29C5645,-144.21 5645,-178 5645,-178 5645,-178 3044.92,-178 3044.92,-178"/>
<polygon fill="black" stroke="black" points="3044.92,-174.5 3034.92,-178 3044.92,-181.5 3044.92,-174.5"/>
</g>
<!-- DriversComponent -->
<g id="node6" class="node">
<title>DriversComponent</title>
<polygon fill="#ffffb3" stroke="black" points="5574.81,-122 5451.19,-122 5451.19,-86 5574.81,-86 5574.81,-122"/>
<text text-anchor="middle" x="5513" y="-99.8" font-family="Times,serif" font-size="14.00">DriversComponent</text>
</g>
<!-- DriversComponent&#45;&gt;AppModule -->
<g id="edge6" class="edge">
<title>DriversComponent&#45;&gt;AppModule</title>
<path fill="none" stroke="black" d="M5513,-122.04C5513,-143.66 5513,-177 5513,-177 5513,-177 3044.9,-177 3044.9,-177"/>
<polygon fill="black" stroke="black" points="3044.9,-173.5 3034.9,-177 3044.9,-180.5 3044.9,-173.5"/>
</g>
<!-- DriversInfoComponent -->
<g id="node7" class="node">
<title>DriversInfoComponent</title>
<polygon fill="#ffffb3" stroke="black" points="5433.13,-122 5286.87,-122 5286.87,-86 5433.13,-86 5433.13,-122"/>
<text text-anchor="middle" x="5360" y="-99.8" font-family="Times,serif" font-size="14.00">DriversInfoComponent</text>
</g>
<!-- DriversInfoComponent&#45;&gt;AppModule -->
<g id="edge7" class="edge">
<title>DriversInfoComponent&#45;&gt;AppModule</title>
<path fill="none" stroke="black" d="M5360,-122.28C5360,-143.32 5360,-175 5360,-175 5360,-175 3044.84,-175 3044.84,-175"/>
<polygon fill="black" stroke="black" points="3044.84,-171.5 3034.84,-175 3044.84,-178.5 3044.84,-171.5"/>
</g>
<!-- FantasyClasificationComponent -->
<g id="node8" class="node">
<title>FantasyClasificationComponent</title>
<polygon fill="#ffffb3" stroke="black" points="5268.42,-122 5071.58,-122 5071.58,-86 5268.42,-86 5268.42,-122"/>
<text text-anchor="middle" x="5170" y="-99.8" font-family="Times,serif" font-size="14.00">FantasyClasificationComponent</text>
</g>
<!-- FantasyClasificationComponent&#45;&gt;AppModule -->
<g id="edge8" class="edge">
<title>FantasyClasificationComponent&#45;&gt;AppModule</title>
<path fill="none" stroke="black" d="M5170,-122.13C5170,-142.57 5170,-173 5170,-173 5170,-173 3045.03,-173 3045.03,-173"/>
<polygon fill="black" stroke="black" points="3045.03,-169.5 3035.03,-173 3045.03,-176.5 3045.03,-169.5"/>
</g>
<!-- FantasyComponent -->
<g id="node9" class="node">
<title>FantasyComponent</title>
<polygon fill="#ffffb3" stroke="black" points="5053.38,-122 4928.62,-122 4928.62,-86 5053.38,-86 5053.38,-122"/>
<text text-anchor="middle" x="4991" y="-99.8" font-family="Times,serif" font-size="14.00">FantasyComponent</text>
</g>
<!-- FantasyComponent&#45;&gt;AppModule -->
<g id="edge9" class="edge">
<title>FantasyComponent&#45;&gt;AppModule</title>
<path fill="none" stroke="black" d="M4991,-122.31C4991,-142.15 4991,-171 4991,-171 4991,-171 3044.73,-171 3044.73,-171"/>
<polygon fill="black" stroke="black" points="3044.73,-167.5 3034.73,-171 3044.73,-174.5 3044.73,-167.5"/>
</g>
<!-- FantasyDialogTeamComponent -->
<g id="node10" class="node">
<title>FantasyDialogTeamComponent</title>
<polygon fill="#ffffb3" stroke="black" points="4910.35,-122 4715.65,-122 4715.65,-86 4910.35,-86 4910.35,-122"/>
<text text-anchor="middle" x="4813" y="-99.8" font-family="Times,serif" font-size="14.00">FantasyDialogTeamComponent</text>
</g>
<!-- FantasyDialogTeamComponent&#45;&gt;AppModule -->
<g id="edge10" class="edge">
<title>FantasyDialogTeamComponent&#45;&gt;AppModule</title>
<path fill="none" stroke="black" d="M4813,-122.11C4813,-141.34 4813,-169 4813,-169 4813,-169 3044.87,-169 3044.87,-169"/>
<polygon fill="black" stroke="black" points="3044.87,-165.5 3034.87,-169 3044.87,-172.5 3044.87,-165.5"/>
</g>
<!-- FantasyHomeComponent -->
<g id="node11" class="node">
<title>FantasyHomeComponent</title>
<polygon fill="#ffffb3" stroke="black" points="4697.59,-122 4538.41,-122 4538.41,-86 4697.59,-86 4697.59,-122"/>
<text text-anchor="middle" x="4618" y="-99.8" font-family="Times,serif" font-size="14.00">FantasyHomeComponent</text>
</g>
<!-- FantasyHomeComponent&#45;&gt;AppModule -->
<g id="edge11" class="edge">
<title>FantasyHomeComponent&#45;&gt;AppModule</title>
<path fill="none" stroke="black" d="M4618,-122.17C4618,-141.09 4618,-168 4618,-168 4618,-168 3044.8,-168 3044.8,-168"/>
<polygon fill="black" stroke="black" points="3044.8,-164.5 3034.8,-168 3044.8,-171.5 3044.8,-164.5"/>
</g>
<!-- FantasyLoginComponent -->
<g id="node12" class="node">
<title>FantasyLoginComponent</title>
<polygon fill="#ffffb3" stroke="black" points="4520.32,-122 4361.68,-122 4361.68,-86 4520.32,-86 4520.32,-122"/>
<text text-anchor="middle" x="4441" y="-99.8" font-family="Times,serif" font-size="14.00">FantasyLoginComponent</text>
</g>
<!-- FantasyLoginComponent&#45;&gt;AppModule -->
<g id="edge12" class="edge">
<title>FantasyLoginComponent&#45;&gt;AppModule</title>
<path fill="none" stroke="black" d="M4441,-122.27C4441,-140.56 4441,-166 4441,-166 4441,-166 3044.77,-166 3044.77,-166"/>
<polygon fill="black" stroke="black" points="3044.77,-162.5 3034.77,-166 3044.77,-169.5 3044.77,-162.5"/>
</g>
<!-- FantasyRecoverPasswordComponent -->
<g id="node13" class="node">
<title>FantasyRecoverPasswordComponent</title>
<polygon fill="#ffffb3" stroke="black" points="4343.67,-122 4118.33,-122 4118.33,-86 4343.67,-86 4343.67,-122"/>
<text text-anchor="middle" x="4231" y="-99.8" font-family="Times,serif" font-size="14.00">FantasyRecoverPasswordComponent</text>
</g>
<!-- FantasyRecoverPasswordComponent&#45;&gt;AppModule -->
<g id="edge13" class="edge">
<title>FantasyRecoverPasswordComponent&#45;&gt;AppModule</title>
<path fill="none" stroke="black" d="M4231,-122C4231,-139.68 4231,-164 4231,-164 4231,-164 3044.9,-164 3044.9,-164"/>
<polygon fill="black" stroke="black" points="3044.9,-160.5 3034.9,-164 3044.9,-167.5 3044.9,-160.5"/>
</g>
<!-- FantasyRegisterComponent -->
<g id="node14" class="node">
<title>FantasyRegisterComponent</title>
<polygon fill="#ffffb3" stroke="black" points="4100.53,-122 3929.47,-122 3929.47,-86 4100.53,-86 4100.53,-122"/>
<text text-anchor="middle" x="4015" y="-99.8" font-family="Times,serif" font-size="14.00">FantasyRegisterComponent</text>
</g>
<!-- FantasyRegisterComponent&#45;&gt;AppModule -->
<g id="edge14" class="edge">
<title>FantasyRegisterComponent&#45;&gt;AppModule</title>
<path fill="none" stroke="black" d="M4015,-122.03C4015,-139.06 4015,-162 4015,-162 4015,-162 3044.97,-162 3044.97,-162"/>
<polygon fill="black" stroke="black" points="3044.97,-158.5 3034.97,-162 3044.97,-165.5 3044.97,-158.5"/>
</g>
<!-- FantasyTeamComponent -->
<g id="node15" class="node">
<title>FantasyTeamComponent</title>
<polygon fill="#ffffb3" stroke="black" points="3911.25,-122 3754.75,-122 3754.75,-86 3911.25,-86 3911.25,-122"/>
<text text-anchor="middle" x="3833" y="-99.8" font-family="Times,serif" font-size="14.00">FantasyTeamComponent</text>
</g>
<!-- FantasyTeamComponent&#45;&gt;AppModule -->
<g id="edge15" class="edge">
<title>FantasyTeamComponent&#45;&gt;AppModule</title>
<path fill="none" stroke="black" d="M3833,-122.03C3833,-138.4 3833,-160 3833,-160 3833,-160 3044.94,-160 3044.94,-160"/>
<polygon fill="black" stroke="black" points="3044.94,-156.5 3034.94,-160 3044.94,-163.5 3044.94,-156.5"/>
</g>
<!-- FormulaTableComponent -->
<g id="node16" class="node">
<title>FormulaTableComponent</title>
<polygon fill="#ffffb3" stroke="black" points="3736.14,-122 3575.86,-122 3575.86,-86 3736.14,-86 3736.14,-122"/>
<text text-anchor="middle" x="3656" y="-99.8" font-family="Times,serif" font-size="14.00">FormulaTableComponent</text>
</g>
<!-- FormulaTableComponent&#45;&gt;AppModule -->
<g id="edge16" class="edge">
<title>FormulaTableComponent&#45;&gt;AppModule</title>
<path fill="none" stroke="black" d="M3656,-122.01C3656,-138.05 3656,-159 3656,-159 3656,-159 3044.72,-159 3044.72,-159"/>
<polygon fill="black" stroke="black" points="3044.72,-155.5 3034.72,-159 3044.72,-162.5 3044.72,-155.5"/>
</g>
<!-- HeaderComponent -->
<g id="node17" class="node">
<title>HeaderComponent</title>
<polygon fill="#ffffb3" stroke="black" points="3557.74,-122 3436.26,-122 3436.26,-86 3557.74,-86 3557.74,-122"/>
<text text-anchor="middle" x="3497" y="-99.8" font-family="Times,serif" font-size="14.00">HeaderComponent</text>
</g>
<!-- HeaderComponent&#45;&gt;AppModule -->
<g id="edge17" class="edge">
<title>HeaderComponent&#45;&gt;AppModule</title>
<path fill="none" stroke="black" d="M3497,-122.24C3497,-137.57 3497,-157 3497,-157 3497,-157 3044.67,-157 3044.67,-157"/>
<polygon fill="black" stroke="black" points="3044.67,-153.5 3034.67,-157 3044.67,-160.5 3044.67,-153.5"/>
</g>
<!-- HomeComponent -->
<g id="node18" class="node">
<title>HomeComponent</title>
<polygon fill="#ffffb3" stroke="black" points="3417.55,-122 3302.45,-122 3302.45,-86 3417.55,-86 3417.55,-122"/>
<text text-anchor="middle" x="3360" y="-99.8" font-family="Times,serif" font-size="14.00">HomeComponent</text>
</g>
<!-- HomeComponent&#45;&gt;AppModule -->
<g id="edge18" class="edge">
<title>HomeComponent&#45;&gt;AppModule</title>
<path fill="none" stroke="black" d="M3360,-122.12C3360,-136.78 3360,-155 3360,-155 3360,-155 3044.74,-155 3044.74,-155"/>
<polygon fill="black" stroke="black" points="3044.74,-151.5 3034.74,-155 3044.74,-158.5 3044.74,-151.5"/>
</g>
<!-- HomeConfigurationComponent -->
<g id="node19" class="node">
<title>HomeConfigurationComponent</title>
<polygon fill="#ffffb3" stroke="black" points="3284.09,-122 3089.91,-122 3089.91,-86 3284.09,-86 3284.09,-122"/>
<text text-anchor="middle" x="3187" y="-99.8" font-family="Times,serif" font-size="14.00">HomeConfigurationComponent</text>
</g>
<!-- HomeConfigurationComponent&#45;&gt;AppModule -->
<g id="edge19" class="edge">
<title>HomeConfigurationComponent&#45;&gt;AppModule</title>
<path fill="none" stroke="black" d="M3187,-122.25C3187,-136.18 3187,-153 3187,-153 3187,-153 3045.1,-153 3045.1,-153"/>
<polygon fill="black" stroke="black" points="3045.1,-149.5 3035.1,-153 3045.1,-156.5 3045.1,-149.5"/>
</g>
<!-- HomeDriversComponent -->
<g id="node20" class="node">
<title>HomeDriversComponent</title>
<polygon fill="#ffffb3" stroke="black" points="3071.52,-122 2914.48,-122 2914.48,-86 3071.52,-86 3071.52,-122"/>
<text text-anchor="middle" x="2993" y="-99.8" font-family="Times,serif" font-size="14.00">HomeDriversComponent</text>
</g>
<!-- HomeDriversComponent&#45;&gt;AppModule -->
<g id="edge20" class="edge">
<title>HomeDriversComponent&#45;&gt;AppModule</title>
<path fill="none" stroke="black" d="M2993,-122.11C2993,-122.11 2993,-140.99 2993,-140.99"/>
<polygon fill="black" stroke="black" points="2989.5,-140.99 2993,-150.99 2996.5,-140.99 2989.5,-140.99"/>
</g>
<!-- HomeTeamsComponent -->
<g id="node21" class="node">
<title>HomeTeamsComponent</title>
<polygon fill="#ffffb3" stroke="black" points="2896.36,-122 2743.64,-122 2743.64,-86 2896.36,-86 2896.36,-122"/>
<text text-anchor="middle" x="2820" y="-99.8" font-family="Times,serif" font-size="14.00">HomeTeamsComponent</text>
</g>
<!-- HomeTeamsComponent&#45;&gt;AppModule -->
<g id="edge21" class="edge">
<title>HomeTeamsComponent&#45;&gt;AppModule</title>
<path fill="none" stroke="black" d="M2820,-122.25C2820,-136.18 2820,-153 2820,-153 2820,-153 2941.12,-153 2941.12,-153"/>
<polygon fill="black" stroke="black" points="2941.12,-156.5 2951.12,-153 2941.12,-149.5 2941.12,-156.5"/>
</g>
<!-- IsNanPipe -->
<g id="node22" class="node">
<title>IsNanPipe</title>
<polygon fill="#ffffb3" stroke="black" points="2725.31,-122 2650.69,-122 2650.69,-86 2725.31,-86 2725.31,-122"/>
<text text-anchor="middle" x="2688" y="-99.8" font-family="Times,serif" font-size="14.00">IsNanPipe</text>
</g>
<!-- IsNanPipe&#45;&gt;AppModule -->
<g id="edge22" class="edge">
<title>IsNanPipe&#45;&gt;AppModule</title>
<path fill="none" stroke="black" d="M2688,-122.12C2688,-136.78 2688,-155 2688,-155 2688,-155 2941.23,-155 2941.23,-155"/>
<polygon fill="black" stroke="black" points="2941.23,-158.5 2951.23,-155 2941.23,-151.5 2941.23,-158.5"/>
</g>
<!-- LoaderComponent -->
<g id="node23" class="node">
<title>LoaderComponent</title>
<polygon fill="#ffffb3" stroke="black" points="2632.47,-122 2511.53,-122 2511.53,-86 2632.47,-86 2632.47,-122"/>
<text text-anchor="middle" x="2572" y="-99.8" font-family="Times,serif" font-size="14.00">LoaderComponent</text>
</g>
<!-- LoaderComponent&#45;&gt;AppModule -->
<g id="edge23" class="edge">
<title>LoaderComponent&#45;&gt;AppModule</title>
<path fill="none" stroke="black" d="M2572,-122.24C2572,-137.57 2572,-157 2572,-157 2572,-157 2941.09,-157 2941.09,-157"/>
<polygon fill="black" stroke="black" points="2941.09,-160.5 2951.09,-157 2941.09,-153.5 2941.09,-160.5"/>
</g>
<!-- LoginComponent -->
<g id="node24" class="node">
<title>LoginComponent</title>
<polygon fill="#ffffb3" stroke="black" points="2493.28,-122 2378.72,-122 2378.72,-86 2493.28,-86 2493.28,-122"/>
<text text-anchor="middle" x="2436" y="-99.8" font-family="Times,serif" font-size="14.00">LoginComponent</text>
</g>
<!-- LoginComponent&#45;&gt;AppModule -->
<g id="edge24" class="edge">
<title>LoginComponent&#45;&gt;AppModule</title>
<path fill="none" stroke="black" d="M2436,-122.01C2436,-138.05 2436,-159 2436,-159 2436,-159 2941.13,-159 2941.13,-159"/>
<polygon fill="black" stroke="black" points="2941.13,-162.5 2951.13,-159 2941.13,-155.5 2941.13,-162.5"/>
</g>
<!-- PageNotFoundComponent -->
<g id="node25" class="node">
<title>PageNotFoundComponent</title>
<polygon fill="#ffffb3" stroke="black" points="2360.82,-122 2195.18,-122 2195.18,-86 2360.82,-86 2360.82,-122"/>
<text text-anchor="middle" x="2278" y="-99.8" font-family="Times,serif" font-size="14.00">PageNotFoundComponent</text>
</g>
<!-- PageNotFoundComponent&#45;&gt;AppModule -->
<g id="edge25" class="edge">
<title>PageNotFoundComponent&#45;&gt;AppModule</title>
<path fill="none" stroke="black" d="M2278,-122.03C2278,-138.4 2278,-160 2278,-160 2278,-160 2941.21,-160 2941.21,-160"/>
<polygon fill="black" stroke="black" points="2941.21,-163.5 2951.21,-160 2941.21,-156.5 2941.21,-163.5"/>
</g>
<!-- PricePipe -->
<g id="node26" class="node">
<title>PricePipe</title>
<polygon fill="#ffffb3" stroke="black" points="2177.65,-122 2108.35,-122 2108.35,-86 2177.65,-86 2177.65,-122"/>
<text text-anchor="middle" x="2143" y="-99.8" font-family="Times,serif" font-size="14.00">PricePipe</text>
</g>
<!-- PricePipe&#45;&gt;AppModule -->
<g id="edge26" class="edge">
<title>PricePipe&#45;&gt;AppModule</title>
<path fill="none" stroke="black" d="M2143,-122.03C2143,-139.06 2143,-162 2143,-162 2143,-162 2941.14,-162 2941.14,-162"/>
<polygon fill="black" stroke="black" points="2941.14,-165.5 2951.14,-162 2941.14,-158.5 2941.14,-165.5"/>
</g>
<!-- ResultsComponent -->
<g id="node27" class="node">
<title>ResultsComponent</title>
<polygon fill="#ffffb3" stroke="black" points="2090.05,-122 1967.95,-122 1967.95,-86 2090.05,-86 2090.05,-122"/>
<text text-anchor="middle" x="2029" y="-99.8" font-family="Times,serif" font-size="14.00">ResultsComponent</text>
</g>
<!-- ResultsComponent&#45;&gt;AppModule -->
<g id="edge27" class="edge">
<title>ResultsComponent&#45;&gt;AppModule</title>
<path fill="none" stroke="black" d="M2029,-122C2029,-139.68 2029,-164 2029,-164 2029,-164 2941.27,-164 2941.27,-164"/>
<polygon fill="black" stroke="black" points="2941.27,-167.5 2951.27,-164 2941.27,-160.5 2941.27,-167.5"/>
</g>
<!-- SpaceToUnderscorePipe -->
<g id="node28" class="node">
<title>SpaceToUnderscorePipe</title>
<polygon fill="#ffffb3" stroke="black" points="1950.38,-122 1795.62,-122 1795.62,-86 1950.38,-86 1950.38,-122"/>
<text text-anchor="middle" x="1873" y="-99.8" font-family="Times,serif" font-size="14.00">SpaceToUnderscorePipe</text>
</g>
<!-- SpaceToUnderscorePipe&#45;&gt;AppModule -->
<g id="edge28" class="edge">
<title>SpaceToUnderscorePipe&#45;&gt;AppModule</title>
<path fill="none" stroke="black" d="M1873,-122.27C1873,-140.56 1873,-166 1873,-166 1873,-166 2941.14,-166 2941.14,-166"/>
<polygon fill="black" stroke="black" points="2941.14,-169.5 2951.14,-166 2941.14,-162.5 2941.14,-169.5"/>
</g>
<!-- StatuteComponent -->
<g id="node29" class="node">
<title>StatuteComponent</title>
<polygon fill="#ffffb3" stroke="black" points="1778.22,-122 1657.78,-122 1657.78,-86 1778.22,-86 1778.22,-122"/>
<text text-anchor="middle" x="1718" y="-99.8" font-family="Times,serif" font-size="14.00">StatuteComponent</text>
</g>
<!-- StatuteComponent&#45;&gt;AppModule -->
<g id="edge29" class="edge">
<title>StatuteComponent&#45;&gt;AppModule</title>
<path fill="none" stroke="black" d="M1718,-122.17C1718,-141.09 1718,-168 1718,-168 1718,-168 2941.3,-168 2941.3,-168"/>
<polygon fill="black" stroke="black" points="2941.3,-171.5 2951.3,-168 2941.3,-164.5 2941.3,-171.5"/>
</g>
<!-- TeamsComponent -->
<g id="node30" class="node">
<title>TeamsComponent</title>
<polygon fill="#ffffb3" stroke="black" points="1640.15,-122 1521.85,-122 1521.85,-86 1640.15,-86 1640.15,-122"/>
<text text-anchor="middle" x="1581" y="-99.8" font-family="Times,serif" font-size="14.00">TeamsComponent</text>
</g>
<!-- TeamsComponent&#45;&gt;AppModule -->
<g id="edge30" class="edge">
<title>TeamsComponent&#45;&gt;AppModule</title>
<path fill="none" stroke="black" d="M1581,-122.11C1581,-141.34 1581,-169 1581,-169 1581,-169 2941.12,-169 2941.12,-169"/>
<polygon fill="black" stroke="black" points="2941.12,-172.5 2951.12,-169 2941.12,-165.5 2941.12,-172.5"/>
</g>
<!-- TeamsInfoComponent -->
<g id="node31" class="node">
<title>TeamsInfoComponent</title>
<polygon fill="#ffffb3" stroke="black" points="1503.97,-122 1362.03,-122 1362.03,-86 1503.97,-86 1503.97,-122"/>
<text text-anchor="middle" x="1433" y="-99.8" font-family="Times,serif" font-size="14.00">TeamsInfoComponent</text>
</g>
<!-- TeamsInfoComponent&#45;&gt;AppModule -->
<g id="edge31" class="edge">
<title>TeamsInfoComponent&#45;&gt;AppModule</title>
<path fill="none" stroke="black" d="M1433,-122.31C1433,-142.15 1433,-171 1433,-171 1433,-171 2941.27,-171 2941.27,-171"/>
<polygon fill="black" stroke="black" points="2941.27,-174.5 2951.27,-171 2941.27,-167.5 2941.27,-174.5"/>
</g>
<!-- AppComponent  -->
<g id="node34" class="node">
<title>AppComponent </title>
<polygon fill="#80b1d3" stroke="black" points="3047.44,-252 2938.56,-252 2938.56,-216 3047.44,-216 3047.44,-252"/>
<text text-anchor="middle" x="2993" y="-229.8" font-family="Times,serif" font-size="14.00">AppComponent </text>
</g>
<!-- AppModule&#45;&gt;AppComponent  -->
<g id="edge33" class="edge">
<title>AppModule&#45;&gt;AppComponent </title>
<path fill="none" stroke="black" stroke-dasharray="1,5" d="M2993,-187.11C2993,-187.11 2993,-205.99 2993,-205.99"/>
<polygon fill="black" stroke="black" points="2989.5,-205.99 2993,-215.99 2996.5,-205.99 2989.5,-205.99"/>
</g>
<!-- AppRoutingModule -->
<g id="node33" class="node">
<title>AppRoutingModule</title>
<polygon fill="#8dd3c7" stroke="black" points="1338.27,-122 1335.27,-126 1314.27,-126 1311.27,-122 1209.73,-122 1209.73,-86 1338.27,-86 1338.27,-122"/>
<text text-anchor="middle" x="1274" y="-99.8" font-family="Times,serif" font-size="14.00">AppRoutingModule</text>
</g>
<!-- AppRoutingModule&#45;&gt;AppModule -->
<g id="edge32" class="edge">
<title>AppRoutingModule&#45;&gt;AppModule</title>
<path fill="none" stroke="black" d="M1274,-122.13C1274,-142.57 1274,-173 1274,-173 1274,-173 2940.93,-173 2940.93,-173"/>
<polygon fill="black" stroke="black" points="2940.93,-176.5 2950.93,-173 2940.93,-169.5 2940.93,-176.5"/>
</g>
<!-- AdminGuard -->
<g id="node35" class="node">
<title>AdminGuard</title>
<ellipse fill="#fdb462" stroke="black" cx="1124" cy="-104" rx="61.98" ry="18"/>
<text text-anchor="middle" x="1124" y="-99.8" font-family="Times,serif" font-size="14.00">AdminGuard</text>
</g>
<!-- AdminGuard&#45;&gt;AppModule -->
<g id="edge34" class="edge">
<title>AdminGuard&#45;&gt;AppModule</title>
<path fill="none" stroke="black" d="M1124,-122.28C1124,-143.32 1124,-175 1124,-175 1124,-175 2941.34,-175 2941.34,-175"/>
<polygon fill="black" stroke="black" points="2941.34,-178.5 2951.34,-175 2941.34,-171.5 2941.34,-178.5"/>
</g>
<!-- FantasyTeamGuard -->
<g id="node36" class="node">
<title>FantasyTeamGuard</title>
<ellipse fill="#fdb462" stroke="black" cx="957" cy="-104" rx="87.38" ry="18"/>
<text text-anchor="middle" x="957" y="-99.8" font-family="Times,serif" font-size="14.00">FantasyTeamGuard</text>
</g>
<!-- FantasyTeamGuard&#45;&gt;AppModule -->
<g id="edge35" class="edge">
<title>FantasyTeamGuard&#45;&gt;AppModule</title>
<path fill="none" stroke="black" d="M957,-122.04C957,-143.66 957,-177 957,-177 957,-177 2940.94,-177 2940.94,-177"/>
<polygon fill="black" stroke="black" points="2940.94,-180.5 2950.94,-177 2940.94,-173.5 2940.94,-180.5"/>
</g>
<!-- LoaderInterceptor -->
<g id="node37" class="node">
<title>LoaderInterceptor</title>
<ellipse fill="#fdb462" stroke="black" cx="771" cy="-104" rx="80.98" ry="18"/>
<text text-anchor="middle" x="771" y="-99.8" font-family="Times,serif" font-size="14.00">LoaderInterceptor</text>
</g>
<!-- LoaderInterceptor&#45;&gt;AppModule -->
<g id="edge36" class="edge">
<title>LoaderInterceptor&#45;&gt;AppModule</title>
<path fill="none" stroke="black" d="M771,-122.29C771,-144.21 771,-178 771,-178 771,-178 2941.09,-178 2941.09,-178"/>
<polygon fill="black" stroke="black" points="2941.09,-181.5 2951.09,-178 2941.09,-174.5 2941.09,-181.5"/>
</g>
<!-- LoaderService -->
<g id="node38" class="node">
<title>LoaderService</title>
<ellipse fill="#fdb462" stroke="black" cx="605" cy="-104" rx="67.17" ry="18"/>
<text text-anchor="middle" x="605" y="-99.8" font-family="Times,serif" font-size="14.00">LoaderService</text>
</g>
<!-- LoaderService&#45;&gt;AppModule -->
<g id="edge37" class="edge">
<title>LoaderService&#45;&gt;AppModule</title>
<path fill="none" stroke="black" d="M605,-122.01C605,-144.49 605,-180 605,-180 605,-180 2941.3,-180 2941.3,-180"/>
<polygon fill="black" stroke="black" points="2941.3,-183.5 2951.3,-180 2941.3,-176.5 2941.3,-183.5"/>
</g>
<!-- LoginGuard -->
<g id="node39" class="node">
<title>LoginGuard</title>
<ellipse fill="#fdb462" stroke="black" cx="461" cy="-104" rx="58.47" ry="18"/>
<text text-anchor="middle" x="461" y="-99.8" font-family="Times,serif" font-size="14.00">LoginGuard</text>
</g>
<!-- LoginGuard&#45;&gt;AppModule -->
<g id="edge38" class="edge">
<title>LoginGuard&#45;&gt;AppModule</title>
<path fill="none" stroke="black" d="M461,-122.09C461,-145.13 461,-182 461,-182 461,-182 2941.16,-182 2941.16,-182"/>
<polygon fill="black" stroke="black" points="2941.16,-185.5 2951.16,-182 2941.16,-178.5 2941.16,-185.5"/>
</g>
<!-- RecoverPasswordGuard -->
<g id="node40" class="node">
<title>RecoverPasswordGuard</title>
<ellipse fill="#fdb462" stroke="black" cx="280" cy="-104" rx="104.2" ry="18"/>
<text text-anchor="middle" x="280" y="-99.8" font-family="Times,serif" font-size="14.00">RecoverPasswordGuard</text>
</g>
<!-- RecoverPasswordGuard&#45;&gt;AppModule -->
<g id="edge39" class="edge">
<title>RecoverPasswordGuard&#45;&gt;AppModule</title>
<path fill="none" stroke="black" d="M280,-122.15C280,-145.76 280,-184 280,-184 280,-184 2941.2,-184 2941.2,-184"/>
<polygon fill="black" stroke="black" points="2941.2,-187.5 2951.2,-184 2941.2,-180.5 2941.2,-187.5"/>
</g>
<!-- ThemeService -->
<g id="node41" class="node">
<title>ThemeService</title>
<ellipse fill="#fdb462" stroke="black" cx="91" cy="-104" rx="66.61" ry="18"/>
<text text-anchor="middle" x="91" y="-99.8" font-family="Times,serif" font-size="14.00">ThemeService</text>
</g>
<!-- ThemeService&#45;&gt;AppModule -->
<g id="edge40" class="edge">
<title>ThemeService&#45;&gt;AppModule</title>
<path fill="none" stroke="black" d="M91,-122.2C91,-146.36 91,-186 91,-186 91,-186 2941.14,-186 2941.14,-186"/>
<polygon fill="black" stroke="black" points="2941.14,-189.5 2951.14,-186 2941.14,-182.5 2941.14,-189.5"/>
</g>
</g>
</svg>
