<?xml version="1.0" encoding="UTF-8" standalone="no"?>
<!DOCTYPE svg PUBLIC "-//W3C//DTD SVG 1.1//EN"
 "http://www.w3.org/Graphics/SVG/1.1/DTD/svg11.dtd">
<!-- Generated by graphviz version 2.47.0 (20210316.0004)
 -->
<!-- Title: dependencies Pages: 1 -->
<svg width="2182pt" height="284pt"
 viewBox="0.00 0.00 2182.00 284.00" xmlns="http://www.w3.org/2000/svg" xmlns:xlink="http://www.w3.org/1999/xlink">
<g id="graph0" class="graph" transform="scale(1 1) rotate(0) translate(4 280)">
<title>dependencies</title>
<polygon fill="white" stroke="transparent" points="-4,4 -4,-280 2178,-280 2178,4 -4,4"/>
<text text-anchor="start" x="1066.01" y="-42.4" font-family="Times-12" font-weight="bold" font-size="14.00">Legend</text>
<polygon fill="#ffffb3" stroke="transparent" points="853,-10 853,-30 873,-30 873,-10 853,-10"/>
<text text-anchor="start" x="876.63" y="-15.4" font-family="Times-12" font-size="14.00"> &#160;Declarations</text>
<polygon fill="#8dd3c7" stroke="transparent" points="966,-10 966,-30 986,-30 986,-10 966,-10"/>
<text text-anchor="start" x="989.73" y="-15.4" font-family="Times-12" font-size="14.00"> &#160;Module</text>
<polygon fill="#80b1d3" stroke="transparent" points="1052,-10 1052,-30 1072,-30 1072,-10 1052,-10"/>
<text text-anchor="start" x="1075.78" y="-15.4" font-family="Times-12" font-size="14.00"> &#160;Bootstrap</text>
<polygon fill="#fdb462" stroke="transparent" points="1149,-10 1149,-30 1169,-30 1169,-10 1149,-10"/>
<text text-anchor="start" x="1172.67" y="-15.4" font-family="Times-12" font-size="14.00"> &#160;Providers</text>
<polygon fill="#fb8072" stroke="transparent" points="1245,-10 1245,-30 1265,-30 1265,-10 1245,-10"/>
<text text-anchor="start" x="1268.73" y="-15.4" font-family="Times-12" font-size="14.00"> &#160;Exports</text>
<g id="clust1" class="cluster">
<title>cluster_AppModule</title>
<polygon fill="none" stroke="black" stroke-dasharray="1,5" points="8,-70 8,-268 2166,-268 2166,-70 8,-70"/>
</g>
<g id="clust2" class="cluster">
<title>cluster_AppModule_declarations</title>
<polygon fill="none" stroke="black" points="648,-78 648,-130 2158,-130 2158,-78 648,-78"/>
</g>
<g id="clust14" class="cluster">
<title>cluster_AppModule_imports</title>
<polygon fill="none" stroke="black" points="496,-78 496,-130 640,-130 640,-78 496,-78"/>
</g>
<g id="clust16" class="cluster">
<title>cluster_AppModule_bootstrap</title>
<polygon fill="none" stroke="black" points="1074,-208 1074,-260 1198,-260 1198,-208 1074,-208"/>
</g>
<g id="clust17" class="cluster">
<title>cluster_AppModule_providers</title>
<polygon fill="none" stroke="black" points="16,-78 16,-130 488,-130 488,-78 16,-78"/>
</g>
<!-- AdminComponent -->
<g id="node1" class="node">
<title>AdminComponent</title>
<polygon fill="#ffffb3" stroke="black" points="2150.22,-122 2029.78,-122 2029.78,-86 2150.22,-86 2150.22,-122"/>
<text text-anchor="middle" x="2090" y="-99.8" font-family="Times,serif" font-size="14.00">AdminComponent</text>
</g>
<!-- AppModule -->
<g id="node12" class="node">
<title>AppModule</title>
<polygon fill="#8dd3c7" stroke="black" points="1177.66,-187 1174.66,-191 1153.66,-191 1150.66,-187 1094.34,-187 1094.34,-151 1177.66,-151 1177.66,-187"/>
<text text-anchor="middle" x="1136" y="-164.8" font-family="Times,serif" font-size="14.00">AppModule</text>
</g>
<!-- AdminComponent&#45;&gt;AppModule -->
<g id="edge1" class="edge">
<title>AdminComponent&#45;&gt;AppModule</title>
<path fill="none" stroke="black" d="M2090,-122.32C2090,-145.66 2090,-183 2090,-183 2090,-183 1187.91,-183 1187.91,-183"/>
<polygon fill="black" stroke="black" points="1187.91,-179.5 1177.91,-183 1187.91,-186.5 1187.91,-179.5"/>
</g>
<!-- AppComponent -->
<g id="node2" class="node">
<title>AppComponent</title>
<polygon fill="#ffffb3" stroke="black" points="2011.94,-122 1906.06,-122 1906.06,-86 2011.94,-86 2011.94,-122"/>
<text text-anchor="middle" x="1959" y="-99.8" font-family="Times,serif" font-size="14.00">AppComponent</text>
</g>
<!-- AppComponent&#45;&gt;AppModule -->
<g id="edge2" class="edge">
<title>AppComponent&#45;&gt;AppModule</title>
<path fill="none" stroke="black" d="M1959,-122.29C1959,-144.21 1959,-178 1959,-178 1959,-178 1187.66,-178 1187.66,-178"/>
<polygon fill="black" stroke="black" points="1187.66,-174.5 1177.66,-178 1187.66,-181.5 1187.66,-174.5"/>
</g>
<!-- DriversComponent -->
<g id="node3" class="node">
<title>DriversComponent</title>
<polygon fill="#ffffb3" stroke="black" points="1888.81,-122 1765.19,-122 1765.19,-86 1888.81,-86 1888.81,-122"/>
<text text-anchor="middle" x="1827" y="-99.8" font-family="Times,serif" font-size="14.00">DriversComponent</text>
</g>
<!-- DriversComponent&#45;&gt;AppModule -->
<g id="edge3" class="edge">
<title>DriversComponent&#45;&gt;AppModule</title>
<path fill="none" stroke="black" d="M1827,-122.03C1827,-142.77 1827,-174 1827,-174 1827,-174 1187.67,-174 1187.67,-174"/>
<polygon fill="black" stroke="black" points="1187.67,-170.5 1177.67,-174 1187.67,-177.5 1187.67,-170.5"/>
</g>
<!-- HeaderComponent -->
<g id="node4" class="node">
<title>HeaderComponent</title>
<polygon fill="#ffffb3" stroke="black" points="1746.74,-122 1625.26,-122 1625.26,-86 1746.74,-86 1746.74,-122"/>
<text text-anchor="middle" x="1686" y="-99.8" font-family="Times,serif" font-size="14.00">HeaderComponent</text>
</g>
<!-- HeaderComponent&#45;&gt;AppModule -->
<g id="edge4" class="edge">
<title>HeaderComponent&#45;&gt;AppModule</title>
<path fill="none" stroke="black" d="M1686,-122.11C1686,-141.34 1686,-169 1686,-169 1686,-169 1187.79,-169 1187.79,-169"/>
<polygon fill="black" stroke="black" points="1187.79,-165.5 1177.79,-169 1187.79,-172.5 1187.79,-165.5"/>
</g>
<!-- HomeComponent -->
<g id="node5" class="node">
<title>HomeComponent</title>
<polygon fill="#ffffb3" stroke="black" points="1606.55,-122 1491.45,-122 1491.45,-86 1606.55,-86 1606.55,-122"/>
<text text-anchor="middle" x="1549" y="-99.8" font-family="Times,serif" font-size="14.00">HomeComponent</text>
</g>
<!-- HomeComponent&#45;&gt;AppModule -->
<g id="edge5" class="edge">
<title>HomeComponent&#45;&gt;AppModule</title>
<path fill="none" stroke="black" d="M1549,-122.3C1549,-140.27 1549,-165 1549,-165 1549,-165 1187.87,-165 1187.87,-165"/>
<polygon fill="black" stroke="black" points="1187.87,-161.5 1177.87,-165 1187.87,-168.5 1187.87,-161.5"/>
</g>
<!-- LoaderComponent -->
<g id="node6" class="node">
<title>LoaderComponent</title>
<polygon fill="#ffffb3" stroke="black" points="1473.47,-122 1352.53,-122 1352.53,-86 1473.47,-86 1473.47,-122"/>
<text text-anchor="middle" x="1413" y="-99.8" font-family="Times,serif" font-size="14.00">LoaderComponent</text>
</g>
<!-- LoaderComponent&#45;&gt;AppModule -->
<g id="edge6" class="edge">
<title>LoaderComponent&#45;&gt;AppModule</title>
<path fill="none" stroke="black" d="M1413,-122.03C1413,-138.4 1413,-160 1413,-160 1413,-160 1187.77,-160 1187.77,-160"/>
<polygon fill="black" stroke="black" points="1187.77,-156.5 1177.77,-160 1187.77,-163.5 1187.77,-156.5"/>
</g>
<!-- LoginComponent -->
<g id="node7" class="node">
<title>LoginComponent</title>
<polygon fill="#ffffb3" stroke="black" points="1334.28,-122 1219.72,-122 1219.72,-86 1334.28,-86 1334.28,-122"/>
<text text-anchor="middle" x="1277" y="-99.8" font-family="Times,serif" font-size="14.00">LoginComponent</text>
</g>
<!-- LoginComponent&#45;&gt;AppModule -->
<g id="edge7" class="edge">
<title>LoginComponent&#45;&gt;AppModule</title>
<path fill="none" stroke="black" d="M1277,-122.19C1277,-137.18 1277,-156 1277,-156 1277,-156 1187.92,-156 1187.92,-156"/>
<polygon fill="black" stroke="black" points="1187.92,-152.5 1177.92,-156 1187.92,-159.5 1187.92,-152.5"/>
</g>
<!-- PenaltiesComponent -->
<g id="node8" class="node">
<title>PenaltiesComponent</title>
<polygon fill="#ffffb3" stroke="black" points="1201.88,-122 1070.12,-122 1070.12,-86 1201.88,-86 1201.88,-122"/>
<text text-anchor="middle" x="1136" y="-99.8" font-family="Times,serif" font-size="14.00">PenaltiesComponent</text>
</g>
<!-- PenaltiesComponent&#45;&gt;AppModule -->
<g id="edge8" class="edge">
<title>PenaltiesComponent&#45;&gt;AppModule</title>
<path fill="none" stroke="black" d="M1136,-122.11C1136,-122.11 1136,-140.99 1136,-140.99"/>
<polygon fill="black" stroke="black" points="1132.5,-140.99 1136,-150.99 1139.5,-140.99 1132.5,-140.99"/>
</g>
<!-- ResultsComponent -->
<g id="node9" class="node">
<title>ResultsComponent</title>
<polygon fill="#ffffb3" stroke="black" points="1052.05,-122 929.95,-122 929.95,-86 1052.05,-86 1052.05,-122"/>
<text text-anchor="middle" x="991" y="-99.8" font-family="Times,serif" font-size="14.00">ResultsComponent</text>
</g>
<!-- ResultsComponent&#45;&gt;AppModule -->
<g id="edge9" class="edge">
<title>ResultsComponent&#45;&gt;AppModule</title>
<path fill="none" stroke="black" d="M991,-122.19C991,-137.18 991,-156 991,-156 991,-156 1084.06,-156 1084.06,-156"/>
<polygon fill="black" stroke="black" points="1084.06,-159.5 1094.06,-156 1084.06,-152.5 1084.06,-159.5"/>
</g>
<!-- StatuteComponent -->
<g id="node10" class="node">
<title>StatuteComponent</title>
<polygon fill="#ffffb3" stroke="black" points="912.22,-122 791.78,-122 791.78,-86 912.22,-86 912.22,-122"/>
<text text-anchor="middle" x="852" y="-99.8" font-family="Times,serif" font-size="14.00">StatuteComponent</text>
</g>
<!-- StatuteComponent&#45;&gt;AppModule -->
<g id="edge10" class="edge">
<title>StatuteComponent&#45;&gt;AppModule</title>
<path fill="none" stroke="black" d="M852,-122.03C852,-138.4 852,-160 852,-160 852,-160 1084.09,-160 1084.09,-160"/>
<polygon fill="black" stroke="black" points="1084.09,-163.5 1094.09,-160 1084.09,-156.5 1084.09,-163.5"/>
</g>
<!-- TeamsComponent -->
<g id="node11" class="node">
<title>TeamsComponent</title>
<polygon fill="#ffffb3" stroke="black" points="774.15,-122 655.85,-122 655.85,-86 774.15,-86 774.15,-122"/>
<text text-anchor="middle" x="715" y="-99.8" font-family="Times,serif" font-size="14.00">TeamsComponent</text>
</g>
<!-- TeamsComponent&#45;&gt;AppModule -->
<g id="edge11" class="edge">
<title>TeamsComponent&#45;&gt;AppModule</title>
<path fill="none" stroke="black" d="M715,-122.3C715,-140.27 715,-165 715,-165 715,-165 1084.09,-165 1084.09,-165"/>
<polygon fill="black" stroke="black" points="1084.09,-168.5 1094.09,-165 1084.09,-161.5 1084.09,-168.5"/>
</g>
<!-- AppComponent  -->
<g id="node14" class="node">
<title>AppComponent </title>
<polygon fill="#80b1d3" stroke="black" points="1190.44,-252 1081.56,-252 1081.56,-216 1190.44,-216 1190.44,-252"/>
<text text-anchor="middle" x="1136" y="-229.8" font-family="Times,serif" font-size="14.00">AppComponent </text>
</g>
<!-- AppModule&#45;&gt;AppComponent  -->
<g id="edge13" class="edge">
<title>AppModule&#45;&gt;AppComponent </title>
<path fill="none" stroke="black" stroke-dasharray="1,5" d="M1136,-187.11C1136,-187.11 1136,-205.99 1136,-205.99"/>
<polygon fill="black" stroke="black" points="1132.5,-205.99 1136,-215.99 1139.5,-205.99 1132.5,-205.99"/>
</g>
<!-- AppRoutingModule -->
<g id="node13" class="node">
<title>AppRoutingModule</title>
<polygon fill="#8dd3c7" stroke="black" points="632.27,-122 629.27,-126 608.27,-126 605.27,-122 503.73,-122 503.73,-86 632.27,-86 632.27,-122"/>
<text text-anchor="middle" x="568" y="-99.8" font-family="Times,serif" font-size="14.00">AppRoutingModule</text>
</g>
<!-- AppRoutingModule&#45;&gt;AppModule -->
<g id="edge12" class="edge">
<title>AppRoutingModule&#45;&gt;AppModule</title>
<path fill="none" stroke="black" d="M568,-122.11C568,-141.34 568,-169 568,-169 568,-169 1084.23,-169 1084.23,-169"/>
<polygon fill="black" stroke="black" points="1084.23,-172.5 1094.23,-169 1084.23,-165.5 1084.23,-172.5"/>
</g>
<!-- AdminGuard -->
<g id="node15" class="node">
<title>AdminGuard</title>
<ellipse fill="#fdb462" stroke="black" cx="418" cy="-104" rx="61.98" ry="18"/>
<text text-anchor="middle" x="418" y="-99.8" font-family="Times,serif" font-size="14.00">AdminGuard</text>
</g>
<!-- AdminGuard&#45;&gt;AppModule -->
<g id="edge14" class="edge">
<title>AdminGuard&#45;&gt;AppModule</title>
<path fill="none" stroke="black" d="M418,-122.03C418,-142.77 418,-174 418,-174 418,-174 1084.29,-174 1084.29,-174"/>
<polygon fill="black" stroke="black" points="1084.29,-177.5 1094.29,-174 1084.29,-170.5 1084.29,-177.5"/>
</g>
<!-- LoaderInterceptor -->
<g id="node16" class="node">
<title>LoaderInterceptor</title>
<ellipse fill="#fdb462" stroke="black" cx="257" cy="-104" rx="80.98" ry="18"/>
<text text-anchor="middle" x="257" y="-99.8" font-family="Times,serif" font-size="14.00">LoaderInterceptor</text>
</g>
<!-- LoaderInterceptor&#45;&gt;AppModule -->
<g id="edge15" class="edge">
<title>LoaderInterceptor&#45;&gt;AppModule</title>
<path fill="none" stroke="black" d="M257,-122.29C257,-144.21 257,-178 257,-178 257,-178 1084.2,-178 1084.2,-178"/>
<polygon fill="black" stroke="black" points="1084.2,-181.5 1094.2,-178 1084.2,-174.5 1084.2,-181.5"/>
</g>
<!-- LoaderService -->
<g id="node17" class="node">
<title>LoaderService</title>
<ellipse fill="#fdb462" stroke="black" cx="91" cy="-104" rx="67.17" ry="18"/>
<text text-anchor="middle" x="91" y="-99.8" font-family="Times,serif" font-size="14.00">LoaderService</text>
</g>
<!-- LoaderService&#45;&gt;AppModule -->
<g id="edge16" class="edge">
<title>LoaderService&#45;&gt;AppModule</title>
<path fill="none" stroke="black" d="M91,-122.32C91,-145.66 91,-183 91,-183 91,-183 1084.07,-183 1084.07,-183"/>
<polygon fill="black" stroke="black" points="1084.07,-186.5 1094.07,-183 1084.07,-179.5 1084.07,-186.5"/>
</g>
</g>
</svg>
